G04*
G04 #@! TF.GenerationSoftware,Altium Limited,Altium Designer,20.2.4 (192)*
G04*
G04 Layer_Color=16711935*
%FSLAX44Y44*%
%MOMM*%
G71*
G04*
G04 #@! TF.SameCoordinates,509B19E0-9A6C-4A90-A4B3-F249D568F8E9*
G04*
G04*
G04 #@! TF.FilePolarity,Negative*
G04*
G01*
G75*
%ADD10C,4.0132*%
%ADD11R,1.9812X1.9812*%
%ADD12C,1.9812*%
%ADD13C,4.6040*%
%ADD14R,2.8870X2.8870*%
%ADD15C,2.7032*%
%ADD16C,2.7432*%
%ADD17R,1.9812X1.9812*%
%ADD18R,1.7032X1.7032*%
%ADD19C,1.7032*%
%ADD20C,1.4732*%
D10*
X1709420Y335280D02*
D03*
X1720850Y1182370D02*
D03*
D11*
X529590Y1118350D02*
D03*
X1245870Y1179830D02*
D03*
X1391920Y1184910D02*
D03*
X1570000Y1187450D02*
D03*
X707390Y509270D02*
D03*
X850900Y511810D02*
D03*
X1277620Y347980D02*
D03*
X1515110Y346710D02*
D03*
X1371600D02*
D03*
X1126490D02*
D03*
D12*
X529590Y1092950D02*
D03*
Y661150D02*
D03*
Y1067550D02*
D03*
Y1042150D02*
D03*
Y1016750D02*
D03*
Y991350D02*
D03*
Y965950D02*
D03*
Y940550D02*
D03*
Y915150D02*
D03*
Y889750D02*
D03*
Y864350D02*
D03*
Y838950D02*
D03*
Y813550D02*
D03*
Y788150D02*
D03*
Y762750D02*
D03*
Y737350D02*
D03*
Y711950D02*
D03*
Y686550D02*
D03*
X783590Y1118350D02*
D03*
Y1092950D02*
D03*
Y1067550D02*
D03*
Y1042150D02*
D03*
Y1016750D02*
D03*
Y991350D02*
D03*
Y965950D02*
D03*
Y940550D02*
D03*
Y915150D02*
D03*
Y889750D02*
D03*
Y864350D02*
D03*
Y838950D02*
D03*
Y813550D02*
D03*
Y788150D02*
D03*
Y762750D02*
D03*
Y737350D02*
D03*
Y711950D02*
D03*
Y686550D02*
D03*
Y661150D02*
D03*
X1131570Y1216100D02*
D03*
X1296670Y1179830D02*
D03*
X1442720Y1184910D02*
D03*
X1605000Y1187450D02*
D03*
X783590Y509270D02*
D03*
X732790D02*
D03*
X758190D02*
D03*
X927100Y511810D02*
D03*
X876300D02*
D03*
X901700D02*
D03*
X966470Y1060450D02*
D03*
Y1085850D02*
D03*
Y1035050D02*
D03*
X440690Y1118870D02*
D03*
Y1093470D02*
D03*
Y1068070D02*
D03*
Y1042670D02*
D03*
Y1017270D02*
D03*
Y991870D02*
D03*
Y966470D02*
D03*
Y941070D02*
D03*
Y915670D02*
D03*
Y890270D02*
D03*
Y864870D02*
D03*
Y839470D02*
D03*
Y814070D02*
D03*
Y788670D02*
D03*
Y763270D02*
D03*
Y737870D02*
D03*
Y712470D02*
D03*
Y687070D02*
D03*
X334010Y849630D02*
D03*
X308610Y824230D02*
D03*
X334010D02*
D03*
X308610Y798830D02*
D03*
X334010D02*
D03*
X308610Y773430D02*
D03*
X334010D02*
D03*
X308610Y748030D02*
D03*
X334010D02*
D03*
X325120Y1107440D02*
D03*
X299720Y1082040D02*
D03*
X325120D02*
D03*
X299720Y1056640D02*
D03*
X325120D02*
D03*
X299720Y1031240D02*
D03*
X325120D02*
D03*
X299720Y1005840D02*
D03*
X325120D02*
D03*
X1226820Y347980D02*
D03*
X1565910Y346710D02*
D03*
X1002030Y862330D02*
D03*
X925830D02*
D03*
X927100Y904240D02*
D03*
X1003300D02*
D03*
X1004570Y990600D02*
D03*
X928370D02*
D03*
X929640Y955040D02*
D03*
X1005840D02*
D03*
X491490Y518160D02*
D03*
Y441960D02*
D03*
X443230Y440690D02*
D03*
Y516890D02*
D03*
X336550Y518160D02*
D03*
Y441960D02*
D03*
X383540D02*
D03*
Y518160D02*
D03*
X961390Y784860D02*
D03*
Y759460D02*
D03*
Y810260D02*
D03*
X378460Y593090D02*
D03*
Y618490D02*
D03*
Y567690D02*
D03*
X292100Y593090D02*
D03*
Y618490D02*
D03*
Y567690D02*
D03*
X864870Y1093470D02*
D03*
Y1068070D02*
D03*
Y1042670D02*
D03*
Y1017270D02*
D03*
Y991870D02*
D03*
Y966470D02*
D03*
Y941070D02*
D03*
Y915670D02*
D03*
Y890270D02*
D03*
Y864870D02*
D03*
Y839470D02*
D03*
Y814070D02*
D03*
Y788670D02*
D03*
Y763270D02*
D03*
Y737870D02*
D03*
Y712470D02*
D03*
Y687070D02*
D03*
Y661670D02*
D03*
X1422400Y346710D02*
D03*
X1091490D02*
D03*
D13*
X1315720Y915670D02*
D03*
X1155700Y615950D02*
D03*
X1668780Y913130D02*
D03*
X1508760Y613410D02*
D03*
D14*
X1149985Y568325D02*
D03*
Y963295D02*
D03*
X1321435D02*
D03*
Y568325D02*
D03*
X1503045Y565785D02*
D03*
Y960755D02*
D03*
X1674495D02*
D03*
Y565785D02*
D03*
D15*
X1446090Y1046480D02*
D03*
X1736090D02*
D03*
Y476480D02*
D03*
X1446090D02*
D03*
X1383470D02*
D03*
X1093470D02*
D03*
X1383470Y1046480D02*
D03*
D16*
X1093470D02*
D03*
D17*
X1131570Y1181100D02*
D03*
X966470Y1111250D02*
D03*
X440690Y661670D02*
D03*
X308610Y849630D02*
D03*
X299720Y1107440D02*
D03*
X961390Y734060D02*
D03*
X378460Y643890D02*
D03*
X292100D02*
D03*
X864870Y1118870D02*
D03*
D18*
X876300Y430530D02*
D03*
X927100Y361950D02*
D03*
D19*
X901700Y430530D02*
D03*
X927100D02*
D03*
X850900Y361950D02*
D03*
X901700D02*
D03*
X876300D02*
D03*
X825500D02*
D03*
D20*
X913130Y1061720D02*
D03*
X910590Y1106170D02*
D03*
X293370Y525780D02*
D03*
X247650D02*
D03*
M02*
