M48
;Layer_Color=9474304
;FILE_FORMAT=4:4
METRIC,LZ
;TYPE=PLATED
T1F00S00C0.7112
T2F00S00C1.0000
T3F00S00C1.2700
T4F00S00C1.6510
T5F00S00C1.7780
T6F00S00C3.2000
%
T01
X0024765Y0052578
X0029337
X0091313Y0106172
X0091059Y0110617
T02
X008255Y0036195
X008509
X008763
X009017
X009271
Y0043053
X009017
X008763
T03
X0109149Y0034671
X0112649
X0122682Y0034798
X0127762
X013716Y0034671
X014224
X0151511
X0156591
X009271Y0051181
X009017
X008763
X008509
X0086487Y0066167
Y0068707
Y0071247
Y0073787
Y0076327
Y0078867
X0096139Y0078486
Y0075946
Y0073406
X0078359Y0073735
Y0076275
Y0078815
Y0071195
Y0068655
Y0066115
Y0050927
X0075819
X0073279
X0070739
X0049149Y0051816
X0044323Y0051689
Y0044069
X0049149Y0044196
X0052959Y0066115
Y0068655
Y0071195
Y0073735
Y0076275
Y0078815
X0044069Y0078867
Y0076327
Y0073787
Y0071247
Y0068707
Y0066167
X0037846Y0064389
Y0061849
Y0059309
Y0056769
X0038354Y0051816
X0033655
Y0044196
X0038354
X002921Y0056769
Y0059309
Y0061849
Y0064389
X0030861Y0074803
Y0077343
X0033401
Y0074803
Y0079883
Y0082423
Y0084963
X0030861
Y0082423
Y0079883
X0029972Y0100584
Y0103124
Y0105664
Y0108204
Y0110744
X0032512
Y0108204
Y0105664
Y0103124
Y0100584
X0044069Y0101727
Y0104267
Y0106807
Y0109347
Y0111887
X0052959Y0111835
Y0109295
Y0106755
Y0104215
Y0101675
Y0099135
Y0096595
Y0094055
Y0091515
Y0088975
Y0086435
Y0083895
Y0081355
X0044069Y0081407
Y0083947
Y0086487
Y0089027
Y0091567
Y0094107
Y0096647
Y0099187
X0078359Y0099135
Y0101675
Y0104215
Y0106755
Y0109295
Y0111835
Y0096595
Y0094055
Y0091515
Y0088975
Y0086435
Y0083895
Y0081355
X0086487Y0081407
Y0083947
Y0086487
Y0089027
Y0091567
Y0094107
Y0096647
Y0099187
Y0101727
Y0104267
Y0106807
Y0109347
Y0111887
X0096647Y0111125
Y0108585
Y0106045
Y0103505
X0100457Y009906
X0100584Y0095504
X010033Y0090424
X0100203Y0086233
X0092583
X009271Y0090424
X0092964Y0095504
X0092837Y009906
X0096139Y0081026
X0113157Y011811
X0124587Y0117983
X0129667
X0139192Y0118491
X0144272
X0157Y0118745
X01605
X0113157Y012161
T04
X01674495Y00565785
X01503045
X01321435Y00568325
X01149985
Y00963295
X01321435
X01503045Y00960755
X01674495
T05
X0173609Y0047648
X0144609
X0138347
X0109347
Y0104648
X0138347
X0144609
X0173609
T06
X0150876Y0061341
X011557Y0061595
X0131572Y0091567
X0166878Y0091313
M30
