G04*
G04 #@! TF.GenerationSoftware,Altium Limited,Altium Designer,20.2.4 (192)*
G04*
G04 Layer_Physical_Order=2*
G04 Layer_Color=16711680*
%FSLAX44Y44*%
%MOMM*%
G71*
G04*
G04 #@! TF.SameCoordinates,509B19E0-9A6C-4A90-A4B3-F249D568F8E9*
G04*
G04*
G04 #@! TF.FilePolarity,Positive*
G04*
G01*
G75*
%ADD21C,3.8100*%
%ADD22R,1.7780X1.7780*%
%ADD23C,1.7780*%
%ADD24C,4.4000*%
%ADD25R,2.6830X2.6830*%
%ADD26C,2.5000*%
%ADD27C,2.5400*%
%ADD28R,1.7780X1.7780*%
%ADD29R,1.5000X1.5000*%
%ADD30C,1.5000*%
%ADD31C,1.2700*%
%ADD32C,0.8890*%
%ADD33C,1.1430*%
%ADD34C,0.2540*%
%ADD35C,0.1524*%
G36*
X1767072Y1260342D02*
X1769172Y1258938D01*
X1771650Y1258446D01*
Y257810D01*
X1767840D01*
X202917Y257810D01*
X202424Y260288D01*
X201021Y262388D01*
X198983Y263750D01*
Y1256440D01*
X201021Y1257802D01*
X202038Y1259324D01*
X203561Y1260342D01*
X204923Y1262380D01*
X1765710D01*
X1767072Y1260342D01*
D02*
G37*
%LPC*%
G36*
X1142931Y1214830D02*
X1132840D01*
Y1204739D01*
X1134554Y1204964D01*
X1137334Y1206116D01*
X1139722Y1207948D01*
X1141554Y1210336D01*
X1142706Y1213116D01*
X1142931Y1214830D01*
D02*
G37*
G36*
X1130300D02*
X1120209D01*
X1120434Y1213116D01*
X1121586Y1210336D01*
X1123418Y1207948D01*
X1125806Y1206116D01*
X1128586Y1204964D01*
X1130300Y1204739D01*
Y1214830D01*
D02*
G37*
G36*
X1606270Y1198811D02*
Y1188720D01*
X1616361D01*
X1616136Y1190434D01*
X1614984Y1193214D01*
X1613152Y1195602D01*
X1610764Y1197434D01*
X1607984Y1198586D01*
X1606270Y1198811D01*
D02*
G37*
G36*
X1603730D02*
X1602016Y1198586D01*
X1599236Y1197434D01*
X1596848Y1195602D01*
X1595016Y1193214D01*
X1593864Y1190434D01*
X1593639Y1188720D01*
X1603730D01*
Y1198811D01*
D02*
G37*
G36*
X1443990Y1196271D02*
Y1186180D01*
X1454081D01*
X1453856Y1187894D01*
X1452704Y1190674D01*
X1450872Y1193062D01*
X1448484Y1194894D01*
X1445704Y1196046D01*
X1443990Y1196271D01*
D02*
G37*
G36*
X1441450D02*
X1439736Y1196046D01*
X1436956Y1194894D01*
X1434568Y1193062D01*
X1432736Y1190674D01*
X1431584Y1187894D01*
X1431359Y1186180D01*
X1441450D01*
Y1196271D01*
D02*
G37*
G36*
X1297940Y1191191D02*
Y1181100D01*
X1308031D01*
X1307806Y1182814D01*
X1306654Y1185594D01*
X1304822Y1187982D01*
X1302434Y1189814D01*
X1299654Y1190966D01*
X1297940Y1191191D01*
D02*
G37*
G36*
X1295400D02*
X1293686Y1190966D01*
X1290906Y1189814D01*
X1288518Y1187982D01*
X1286686Y1185594D01*
X1285534Y1182814D01*
X1285309Y1181100D01*
X1295400D01*
Y1191191D01*
D02*
G37*
G36*
X1616361Y1186180D02*
X1606270D01*
Y1176089D01*
X1607984Y1176314D01*
X1610764Y1177466D01*
X1613152Y1179298D01*
X1614984Y1181686D01*
X1616136Y1184466D01*
X1616361Y1186180D01*
D02*
G37*
G36*
X1603730D02*
X1593639D01*
X1593864Y1184466D01*
X1595016Y1181686D01*
X1596848Y1179298D01*
X1599236Y1177466D01*
X1602016Y1176314D01*
X1603730Y1176089D01*
Y1186180D01*
D02*
G37*
G36*
X1454081Y1183640D02*
X1443990D01*
Y1173549D01*
X1445704Y1173774D01*
X1448484Y1174926D01*
X1450872Y1176758D01*
X1452704Y1179146D01*
X1453856Y1181926D01*
X1454081Y1183640D01*
D02*
G37*
G36*
X1441450D02*
X1431359D01*
X1431584Y1181926D01*
X1432736Y1179146D01*
X1434568Y1176758D01*
X1436956Y1174926D01*
X1439736Y1173774D01*
X1441450Y1173549D01*
Y1183640D01*
D02*
G37*
G36*
X1308031Y1178560D02*
X1297940D01*
Y1168469D01*
X1299654Y1168694D01*
X1302434Y1169846D01*
X1304822Y1171678D01*
X1306654Y1174066D01*
X1307806Y1176846D01*
X1308031Y1178560D01*
D02*
G37*
G36*
X1295400D02*
X1285309D01*
X1285534Y1176846D01*
X1286686Y1174066D01*
X1288518Y1171678D01*
X1290906Y1169846D01*
X1293686Y1168694D01*
X1295400Y1168469D01*
Y1178560D01*
D02*
G37*
G36*
X1145540Y1195070D02*
X1117600D01*
Y1167130D01*
X1130142D01*
X1139097Y1158175D01*
Y981790D01*
X1131490D01*
Y944800D01*
X1139097D01*
Y804570D01*
X1003706Y669179D01*
X1001975Y666924D01*
X1000888Y664298D01*
X1000517Y661480D01*
Y396455D01*
X933719Y329658D01*
X872717D01*
X853855Y348521D01*
X854391Y349780D01*
X857244Y350961D01*
X859872Y352978D01*
X861889Y355606D01*
X863156Y358666D01*
X863588Y361950D01*
X863156Y365234D01*
X861889Y368294D01*
X859872Y370922D01*
X857244Y372939D01*
X854184Y374206D01*
X850900Y374638D01*
X847616Y374206D01*
X844556Y372939D01*
X841928Y370922D01*
X839911Y368294D01*
X838887Y365822D01*
X837513D01*
X836489Y368294D01*
X834472Y370922D01*
X831844Y372939D01*
X828784Y374206D01*
X825500Y374638D01*
X822216Y374206D01*
X819156Y372939D01*
X819025Y372838D01*
X788100D01*
X733569Y427370D01*
X734055Y428543D01*
X777240D01*
X779727Y428870D01*
X782044Y429830D01*
X784034Y431357D01*
X850517Y497840D01*
X864870D01*
Y506218D01*
X866140Y506470D01*
X866316Y506046D01*
X868148Y503658D01*
X870536Y501826D01*
X873316Y500674D01*
X875030Y500449D01*
Y511810D01*
Y523171D01*
X873316Y522946D01*
X870536Y521794D01*
X868148Y519962D01*
X866316Y517574D01*
X866140Y517150D01*
X864870Y517402D01*
Y525780D01*
X836930D01*
Y511427D01*
X773261Y447757D01*
X718278D01*
Y495300D01*
X721360D01*
Y503678D01*
X722630Y503930D01*
X722806Y503506D01*
X724638Y501118D01*
X727026Y499286D01*
X729806Y498134D01*
X731520Y497909D01*
Y509270D01*
Y520631D01*
X729806Y520406D01*
X727026Y519254D01*
X724638Y517422D01*
X722806Y515034D01*
X722630Y514610D01*
X721360Y514862D01*
Y523240D01*
X693420D01*
Y495300D01*
X696502D01*
Y438150D01*
X696873Y435332D01*
X697961Y432706D01*
X699691Y430451D01*
X775891Y354251D01*
X778146Y352521D01*
X780772Y351433D01*
X783590Y351062D01*
X819025D01*
X819156Y350961D01*
X821651Y349928D01*
X860508Y311071D01*
X862763Y309341D01*
X865389Y308253D01*
X868207Y307882D01*
X938230D01*
X941048Y308253D01*
X943674Y309341D01*
X945928Y311071D01*
X1019104Y384246D01*
X1020834Y386501D01*
X1021922Y389127D01*
X1022293Y391945D01*
Y656970D01*
X1157684Y792361D01*
X1159414Y794616D01*
X1160502Y797242D01*
X1160873Y800060D01*
Y944800D01*
X1168480D01*
Y981790D01*
X1160873D01*
Y1162685D01*
X1160502Y1165503D01*
X1159414Y1168129D01*
X1159278Y1168307D01*
X1159904Y1169577D01*
X1231900D01*
Y1165860D01*
X1259840D01*
Y1193800D01*
X1231900D01*
Y1191353D01*
X1145540D01*
Y1195070D01*
D02*
G37*
G36*
X1720850Y1206617D02*
X1716120Y1206151D01*
X1711571Y1204771D01*
X1707379Y1202530D01*
X1703705Y1199515D01*
X1700690Y1195841D01*
X1698449Y1191649D01*
X1697069Y1187100D01*
X1696603Y1182370D01*
X1697069Y1177640D01*
X1698449Y1173091D01*
X1700690Y1168899D01*
X1703705Y1165225D01*
X1707379Y1162210D01*
X1711571Y1159969D01*
X1716120Y1158589D01*
X1720850Y1158123D01*
X1725580Y1158589D01*
X1730129Y1159969D01*
X1734321Y1162210D01*
X1737995Y1165225D01*
X1741010Y1168899D01*
X1743251Y1173091D01*
X1744631Y1177640D01*
X1745097Y1182370D01*
X1744631Y1187100D01*
X1743251Y1191649D01*
X1741010Y1195841D01*
X1737995Y1199515D01*
X1734321Y1202530D01*
X1730129Y1204771D01*
X1725580Y1206151D01*
X1720850Y1206617D01*
D02*
G37*
G36*
X876300Y1130300D02*
X866140D01*
Y1120140D01*
X876300D01*
Y1130300D01*
D02*
G37*
G36*
X782320Y1129711D02*
X780606Y1129486D01*
X777826Y1128334D01*
X775438Y1126502D01*
X773606Y1124114D01*
X772454Y1121334D01*
X772229Y1119620D01*
X782320D01*
Y1129711D01*
D02*
G37*
G36*
X298450Y1118870D02*
X288290D01*
Y1108710D01*
X298450D01*
Y1118870D01*
D02*
G37*
G36*
X911860Y1114969D02*
Y1107440D01*
X919389D01*
X919251Y1108491D01*
X918355Y1110653D01*
X916930Y1112510D01*
X915073Y1113935D01*
X912911Y1114831D01*
X911860Y1114969D01*
D02*
G37*
G36*
X909320D02*
X908269Y1114831D01*
X906107Y1113935D01*
X904250Y1112510D01*
X902825Y1110653D01*
X901929Y1108491D01*
X901790Y1107440D01*
X909320D01*
Y1114969D01*
D02*
G37*
G36*
X919389Y1104900D02*
X911860D01*
Y1097371D01*
X912911Y1097509D01*
X915073Y1098405D01*
X916930Y1099830D01*
X918355Y1101687D01*
X919251Y1103849D01*
X919389Y1104900D01*
D02*
G37*
G36*
X909320D02*
X901790D01*
X901929Y1103849D01*
X902825Y1101687D01*
X904250Y1099830D01*
X906107Y1098405D01*
X908269Y1097509D01*
X909320Y1097371D01*
Y1104900D01*
D02*
G37*
G36*
X1736090Y1064145D02*
X1732644Y1063806D01*
X1729330Y1062800D01*
X1726276Y1061168D01*
X1723599Y1058971D01*
X1721402Y1056294D01*
X1719770Y1053240D01*
X1718764Y1049926D01*
X1718425Y1046480D01*
X1718764Y1043034D01*
X1719770Y1039720D01*
X1721402Y1036666D01*
X1723599Y1033989D01*
X1726276Y1031792D01*
X1729330Y1030160D01*
X1732644Y1029154D01*
X1736090Y1028815D01*
X1739536Y1029154D01*
X1742850Y1030160D01*
X1745904Y1031792D01*
X1748581Y1033989D01*
X1750778Y1036666D01*
X1752410Y1039720D01*
X1753416Y1043034D01*
X1753755Y1046480D01*
X1753416Y1049926D01*
X1752410Y1053240D01*
X1750778Y1056294D01*
X1748581Y1058971D01*
X1745904Y1061168D01*
X1742850Y1062800D01*
X1739536Y1063806D01*
X1736090Y1064145D01*
D02*
G37*
G36*
X1446090D02*
X1442644Y1063806D01*
X1439330Y1062800D01*
X1436276Y1061168D01*
X1433599Y1058971D01*
X1431402Y1056294D01*
X1429770Y1053240D01*
X1428764Y1049926D01*
X1428425Y1046480D01*
X1428764Y1043034D01*
X1429770Y1039720D01*
X1431402Y1036666D01*
X1433599Y1033989D01*
X1436276Y1031792D01*
X1439330Y1030160D01*
X1442644Y1029154D01*
X1446090Y1028815D01*
X1449536Y1029154D01*
X1452850Y1030160D01*
X1455904Y1031792D01*
X1458581Y1033989D01*
X1460778Y1036666D01*
X1462410Y1039720D01*
X1463416Y1043034D01*
X1463755Y1046480D01*
X1463416Y1049926D01*
X1462410Y1053240D01*
X1460778Y1056294D01*
X1458581Y1058971D01*
X1455904Y1061168D01*
X1452850Y1062800D01*
X1449536Y1063806D01*
X1446090Y1064145D01*
D02*
G37*
G36*
X1383470D02*
X1380024Y1063806D01*
X1376710Y1062800D01*
X1373656Y1061168D01*
X1370979Y1058971D01*
X1368782Y1056294D01*
X1367150Y1053240D01*
X1366144Y1049926D01*
X1365805Y1046480D01*
X1366144Y1043034D01*
X1367150Y1039720D01*
X1368782Y1036666D01*
X1370979Y1033989D01*
X1373656Y1031792D01*
X1376710Y1030160D01*
X1380024Y1029154D01*
X1383470Y1028815D01*
X1386916Y1029154D01*
X1390230Y1030160D01*
X1393284Y1031792D01*
X1395961Y1033989D01*
X1398158Y1036666D01*
X1399790Y1039720D01*
X1400796Y1043034D01*
X1401135Y1046480D01*
X1400796Y1049926D01*
X1399790Y1053240D01*
X1398158Y1056294D01*
X1395961Y1058971D01*
X1393284Y1061168D01*
X1390230Y1062800D01*
X1386916Y1063806D01*
X1383470Y1064145D01*
D02*
G37*
G36*
X1093470Y1064346D02*
X1089985Y1064003D01*
X1086633Y1062986D01*
X1083544Y1061335D01*
X1080837Y1059113D01*
X1078615Y1056406D01*
X1076964Y1053317D01*
X1075947Y1049966D01*
X1075604Y1046480D01*
X1075947Y1042995D01*
X1076964Y1039643D01*
X1078615Y1036554D01*
X1080837Y1033847D01*
X1083544Y1031625D01*
X1086633Y1029974D01*
X1089985Y1028957D01*
X1093470Y1028614D01*
X1096955Y1028957D01*
X1100307Y1029974D01*
X1103396Y1031625D01*
X1106103Y1033847D01*
X1108325Y1036554D01*
X1109976Y1039643D01*
X1110993Y1042995D01*
X1111336Y1046480D01*
X1110993Y1049966D01*
X1109976Y1053317D01*
X1108325Y1056406D01*
X1106103Y1059113D01*
X1103396Y1061335D01*
X1100307Y1062986D01*
X1096955Y1064003D01*
X1093470Y1064346D01*
D02*
G37*
G36*
X1337390Y979250D02*
X1322705D01*
Y964565D01*
X1337390D01*
Y979250D01*
D02*
G37*
G36*
X1320165D02*
X1305480D01*
Y964565D01*
X1320165D01*
Y979250D01*
D02*
G37*
G36*
X1690450Y976710D02*
X1675765D01*
Y962025D01*
X1690450D01*
Y976710D01*
D02*
G37*
G36*
X1673225D02*
X1658540D01*
Y962025D01*
X1673225D01*
Y976710D01*
D02*
G37*
G36*
X1337390Y962025D02*
X1322705D01*
Y947340D01*
X1337390D01*
Y962025D01*
D02*
G37*
G36*
X1320165D02*
X1305480D01*
Y947340D01*
X1320165D01*
Y962025D01*
D02*
G37*
G36*
X1690450Y959485D02*
X1675765D01*
Y944800D01*
X1690450D01*
Y959485D01*
D02*
G37*
G36*
X1673225D02*
X1658540D01*
Y944800D01*
X1673225D01*
Y959485D01*
D02*
G37*
G36*
X1341045Y1246673D02*
X1044015D01*
X1043445Y1246598D01*
X453390D01*
X450572Y1246227D01*
X447946Y1245139D01*
X445691Y1243409D01*
X323614Y1121332D01*
X321473Y1121050D01*
X318075Y1119643D01*
X315156Y1117403D01*
X312917Y1114485D01*
X312420Y1113285D01*
X311150Y1113538D01*
Y1118870D01*
X300990D01*
Y1107440D01*
X299720D01*
Y1106170D01*
X288290D01*
Y1096010D01*
X293622D01*
X293875Y1094740D01*
X292675Y1094243D01*
X289757Y1092003D01*
X287517Y1089085D01*
X286110Y1085687D01*
X285630Y1082040D01*
X286110Y1078393D01*
X287517Y1074995D01*
X289757Y1072076D01*
X292353Y1070084D01*
X292462Y1069664D01*
Y1069016D01*
X292353Y1068596D01*
X289757Y1066603D01*
X289534Y1066313D01*
X267045D01*
X264228Y1065942D01*
X261602Y1064854D01*
X259346Y1063124D01*
X252651Y1056429D01*
X250921Y1054174D01*
X249833Y1051547D01*
X249462Y1048729D01*
Y871565D01*
X249833Y868747D01*
X250921Y866122D01*
X252651Y863867D01*
X254906Y862136D01*
X257532Y861048D01*
X260350Y860677D01*
X293907D01*
X295910Y860941D01*
X297180Y860443D01*
Y850900D01*
X308610D01*
Y848360D01*
X297180D01*
Y838200D01*
X302512D01*
X302765Y836930D01*
X301565Y836433D01*
X298647Y834193D01*
X296407Y831275D01*
X295000Y827877D01*
X294520Y824230D01*
X295000Y820583D01*
X296407Y817185D01*
X298647Y814267D01*
X301243Y812274D01*
X301352Y811854D01*
Y811206D01*
X301243Y810786D01*
X299851Y809718D01*
X267045D01*
X264228Y809347D01*
X261602Y808259D01*
X259346Y806529D01*
X252651Y799834D01*
X250921Y797579D01*
X249833Y794952D01*
X249462Y792134D01*
Y683260D01*
X249833Y680442D01*
X250921Y677816D01*
X252651Y675561D01*
X278130Y650082D01*
Y629920D01*
X282072D01*
X282480Y628717D01*
X282136Y628453D01*
X279897Y625535D01*
X278490Y622137D01*
X278386Y621352D01*
X276890Y620203D01*
X264987Y608300D01*
X263460Y606310D01*
X262500Y603993D01*
X262173Y601507D01*
Y506730D01*
X262500Y504244D01*
X263460Y501926D01*
X264987Y499937D01*
X299277Y465647D01*
X301266Y464120D01*
X303584Y463160D01*
X306070Y462833D01*
X511810D01*
X514296Y463160D01*
X516614Y464120D01*
X518603Y465647D01*
X575753Y522797D01*
X577280Y524786D01*
X578240Y527104D01*
X578567Y529590D01*
Y833736D01*
X578240Y836223D01*
X577280Y838540D01*
X575753Y840530D01*
X570540Y845743D01*
X568550Y847270D01*
X566233Y848230D01*
X563746Y848557D01*
X539827D01*
X539553Y848913D01*
X536957Y850906D01*
X536848Y851326D01*
Y851974D01*
X536957Y852394D01*
X539553Y854387D01*
X541793Y857305D01*
X543200Y860703D01*
X543680Y864350D01*
X543200Y867997D01*
X541793Y871395D01*
X539553Y874314D01*
X536957Y876306D01*
X536848Y876726D01*
Y877374D01*
X536957Y877794D01*
X539553Y879787D01*
X541793Y882705D01*
X543200Y886103D01*
X543680Y889750D01*
X543200Y893397D01*
X541793Y896795D01*
X539553Y899714D01*
X536957Y901706D01*
X536848Y902126D01*
Y902774D01*
X536957Y903194D01*
X539553Y905186D01*
X541793Y908105D01*
X543200Y911503D01*
X543680Y915150D01*
X543200Y918797D01*
X541793Y922195D01*
X539553Y925114D01*
X536957Y927106D01*
X536848Y927526D01*
Y928174D01*
X536957Y928594D01*
X539553Y930586D01*
X541793Y933505D01*
X543200Y936903D01*
X543680Y940550D01*
X543200Y944197D01*
X541793Y947595D01*
X539553Y950514D01*
X536957Y952506D01*
X536848Y952926D01*
Y953574D01*
X536957Y953994D01*
X539553Y955986D01*
X541793Y958905D01*
X543200Y962303D01*
X543680Y965950D01*
X543200Y969597D01*
X541793Y972995D01*
X539553Y975913D01*
X536957Y977906D01*
X536848Y978326D01*
Y978974D01*
X536957Y979394D01*
X539553Y981386D01*
X539827Y981743D01*
X578201D01*
X597453Y962491D01*
Y519599D01*
X529421Y451567D01*
X501727D01*
X501454Y451923D01*
X498535Y454163D01*
X495137Y455570D01*
X491490Y456050D01*
X487843Y455570D01*
X484445Y454163D01*
X481526Y451923D01*
X480766Y450932D01*
X452830D01*
X450275Y452893D01*
X446877Y454300D01*
X443230Y454781D01*
X439583Y454300D01*
X436185Y452893D01*
X433266Y450653D01*
X431027Y447735D01*
X429620Y444337D01*
X429140Y440690D01*
X429620Y437043D01*
X431027Y433645D01*
X433266Y430727D01*
X436185Y428487D01*
X439583Y427080D01*
X443230Y426600D01*
X446877Y427080D01*
X450275Y428487D01*
X453194Y430727D01*
X453954Y431718D01*
X481890D01*
X484445Y429757D01*
X487843Y428350D01*
X491490Y427869D01*
X495137Y428350D01*
X498535Y429757D01*
X501454Y431996D01*
X501727Y432353D01*
X533400D01*
X535886Y432680D01*
X538204Y433640D01*
X540193Y435167D01*
X613853Y508827D01*
X615380Y510816D01*
X616340Y513134D01*
X616667Y515620D01*
Y966470D01*
X616340Y968957D01*
X615380Y971274D01*
X613853Y973263D01*
X588973Y998143D01*
X586984Y999670D01*
X584666Y1000630D01*
X582180Y1000957D01*
X539827D01*
X539553Y1001313D01*
X536957Y1003306D01*
X536848Y1003726D01*
Y1004374D01*
X536957Y1004794D01*
X539553Y1006786D01*
X539827Y1007143D01*
X592575D01*
X622853Y976865D01*
Y464989D01*
X575141Y417277D01*
X444669D01*
X413193Y448753D01*
X411204Y450280D01*
X408886Y451240D01*
X406400Y451567D01*
X393777D01*
X393503Y451923D01*
X390585Y454163D01*
X387187Y455570D01*
X383540Y456050D01*
X379893Y455570D01*
X376495Y454163D01*
X373577Y451923D01*
X373303Y451567D01*
X346787D01*
X346513Y451923D01*
X343595Y454163D01*
X340197Y455570D01*
X336550Y456050D01*
X332903Y455570D01*
X329505Y454163D01*
X326586Y451923D01*
X324347Y449005D01*
X322940Y445607D01*
X322459Y441960D01*
X322940Y438313D01*
X324347Y434915D01*
X326586Y431996D01*
X329505Y429757D01*
X332903Y428350D01*
X336550Y427869D01*
X340197Y428350D01*
X343595Y429757D01*
X346513Y431996D01*
X346787Y432353D01*
X373303D01*
X373577Y431996D01*
X376495Y429757D01*
X379893Y428350D01*
X383540Y427869D01*
X387187Y428350D01*
X390585Y429757D01*
X393503Y431996D01*
X393777Y432353D01*
X402421D01*
X433897Y400877D01*
X435886Y399350D01*
X438204Y398390D01*
X440690Y398063D01*
X579120D01*
X581606Y398390D01*
X583924Y399350D01*
X585913Y400877D01*
X639253Y454217D01*
X640780Y456206D01*
X641740Y458523D01*
X642067Y461010D01*
Y980844D01*
X641740Y983331D01*
X640780Y985648D01*
X639253Y987638D01*
X603348Y1023543D01*
X601358Y1025070D01*
X599041Y1026030D01*
X596554Y1026357D01*
X539827D01*
X539553Y1026713D01*
X536957Y1028706D01*
X536848Y1029126D01*
Y1029774D01*
X536957Y1030194D01*
X539553Y1032187D01*
X541793Y1035105D01*
X543200Y1038503D01*
X543680Y1042150D01*
X543200Y1045797D01*
X541793Y1049195D01*
X539553Y1052113D01*
X536957Y1054106D01*
X536848Y1054526D01*
Y1055174D01*
X536957Y1055594D01*
X539553Y1057587D01*
X541793Y1060505D01*
X543200Y1063903D01*
X543680Y1067550D01*
X543200Y1071197D01*
X541793Y1074595D01*
X539553Y1077514D01*
X536957Y1079506D01*
X536848Y1079926D01*
Y1080574D01*
X536957Y1080994D01*
X539553Y1082987D01*
X541793Y1085905D01*
X543200Y1089303D01*
X543680Y1092950D01*
X543200Y1096597D01*
X541793Y1099995D01*
X539553Y1102914D01*
X539210Y1103177D01*
X539618Y1104380D01*
X543560D01*
Y1132320D01*
X515620D01*
Y1128217D01*
X451127D01*
X450653Y1128833D01*
X447735Y1131073D01*
X444337Y1132480D01*
X440690Y1132961D01*
X437043Y1132480D01*
X433645Y1131073D01*
X430727Y1128833D01*
X428487Y1125915D01*
X427080Y1122517D01*
X426600Y1118870D01*
X427080Y1115223D01*
X428487Y1111825D01*
X430727Y1108906D01*
X433323Y1106914D01*
X433432Y1106494D01*
Y1105846D01*
X433323Y1105426D01*
X430727Y1103434D01*
X428487Y1100515D01*
X427080Y1097117D01*
X426600Y1093470D01*
X427080Y1089823D01*
X428487Y1086425D01*
X430727Y1083506D01*
X433323Y1081514D01*
X433432Y1081094D01*
Y1080446D01*
X433323Y1080026D01*
X430727Y1078034D01*
X428487Y1075115D01*
X427080Y1071717D01*
X426600Y1068070D01*
X427080Y1064423D01*
X428487Y1061025D01*
X430727Y1058107D01*
X433323Y1056114D01*
X433432Y1055694D01*
Y1055046D01*
X433323Y1054626D01*
X430727Y1052634D01*
X428487Y1049715D01*
X427080Y1046317D01*
X426600Y1042670D01*
X427080Y1039023D01*
X428487Y1035625D01*
X430727Y1032707D01*
X433323Y1030714D01*
X433432Y1030294D01*
Y1029646D01*
X433323Y1029226D01*
X430727Y1027234D01*
X428487Y1024315D01*
X427080Y1020917D01*
X426600Y1017270D01*
X427080Y1013623D01*
X428487Y1010225D01*
X430727Y1007307D01*
X433323Y1005314D01*
X433432Y1004894D01*
Y1004246D01*
X433323Y1003826D01*
X430727Y1001833D01*
X428487Y998915D01*
X427080Y995517D01*
X426600Y991870D01*
X427080Y988223D01*
X428487Y984825D01*
X430727Y981907D01*
X433323Y979914D01*
X433432Y979494D01*
Y978846D01*
X433323Y978426D01*
X430727Y976433D01*
X430453Y976077D01*
X419269D01*
X357313Y1038033D01*
X355324Y1039560D01*
X353007Y1040520D01*
X350520Y1040847D01*
X335357D01*
X335084Y1041204D01*
X332487Y1043196D01*
X332378Y1043616D01*
Y1044264D01*
X332487Y1044684D01*
X335084Y1046676D01*
X335781Y1047585D01*
X337810Y1048426D01*
X340065Y1050156D01*
X355044Y1065135D01*
X356774Y1067390D01*
X357862Y1070016D01*
X358233Y1072834D01*
Y1091246D01*
X357862Y1094064D01*
X356774Y1096690D01*
X355044Y1098945D01*
X343534Y1110455D01*
X457900Y1224822D01*
X1024162D01*
Y1113254D01*
X1022989Y1112768D01*
X1017713Y1118043D01*
X1015724Y1119570D01*
X1013407Y1120530D01*
X1010920Y1120857D01*
X980440D01*
Y1125220D01*
X952500D01*
Y1097280D01*
X955664D01*
X956275Y1096010D01*
X955834Y1095457D01*
X879219D01*
X878620Y1096056D01*
X878480Y1097117D01*
X877073Y1100515D01*
X874834Y1103434D01*
X871915Y1105673D01*
X870715Y1106170D01*
X870967Y1107440D01*
X876300D01*
Y1117600D01*
X864870D01*
Y1118870D01*
X863600D01*
Y1130300D01*
X853440D01*
Y1128217D01*
X789507D01*
X789354Y1128334D01*
X786574Y1129486D01*
X784860Y1129711D01*
Y1118350D01*
X783590D01*
Y1117080D01*
X772229D01*
X772454Y1115366D01*
X773606Y1112586D01*
X775438Y1110198D01*
X777826Y1108366D01*
X779405Y1107712D01*
Y1106337D01*
X776545Y1105153D01*
X773626Y1102914D01*
X771387Y1099995D01*
X769980Y1096597D01*
X769500Y1092950D01*
X769980Y1089303D01*
X771387Y1085905D01*
X773626Y1082987D01*
X776223Y1080994D01*
X776332Y1080574D01*
Y1079926D01*
X776223Y1079506D01*
X773626Y1077514D01*
X771387Y1074595D01*
X769980Y1071197D01*
X769500Y1067550D01*
X769980Y1063903D01*
X771387Y1060505D01*
X773626Y1057587D01*
X776223Y1055594D01*
X776332Y1055174D01*
Y1054526D01*
X776223Y1054106D01*
X773626Y1052113D01*
X771387Y1049195D01*
X769980Y1045797D01*
X769500Y1042150D01*
X769980Y1038503D01*
X771387Y1035105D01*
X773626Y1032187D01*
X776223Y1030194D01*
X776332Y1029774D01*
Y1029126D01*
X776223Y1028706D01*
X773626Y1026713D01*
X771387Y1023795D01*
X769980Y1020397D01*
X769500Y1016750D01*
X769980Y1013103D01*
X771387Y1009705D01*
X773626Y1006786D01*
X776223Y1004794D01*
X776332Y1004374D01*
Y1003726D01*
X776223Y1003306D01*
X773626Y1001313D01*
X771387Y998395D01*
X769980Y994997D01*
X769500Y991350D01*
X769980Y987703D01*
X771387Y984305D01*
X773626Y981386D01*
X776223Y979394D01*
X776332Y978974D01*
Y978326D01*
X776223Y977906D01*
X773626Y975913D01*
X771387Y972995D01*
X769980Y969597D01*
X769500Y965950D01*
X769980Y962303D01*
X771387Y958905D01*
X773626Y955986D01*
X776223Y953994D01*
X776332Y953574D01*
Y952926D01*
X776223Y952506D01*
X773626Y950514D01*
X773353Y950157D01*
X755130D01*
X752644Y949830D01*
X750326Y948870D01*
X748337Y947343D01*
X683470Y882477D01*
X681944Y880487D01*
X680984Y878170D01*
X680657Y875684D01*
Y555606D01*
X680984Y553120D01*
X681944Y550803D01*
X683470Y548813D01*
X704407Y527877D01*
X706396Y526350D01*
X708714Y525390D01*
X711200Y525063D01*
X732147D01*
X735485Y521725D01*
X734892Y520522D01*
X734060Y520631D01*
Y509270D01*
Y497909D01*
X735774Y498134D01*
X738554Y499286D01*
X740942Y501118D01*
X742774Y503506D01*
X743428Y505084D01*
X744803D01*
X745987Y502225D01*
X748226Y499306D01*
X751145Y497067D01*
X754543Y495660D01*
X758190Y495179D01*
X761837Y495660D01*
X765235Y497067D01*
X768154Y499306D01*
X770146Y501903D01*
X770566Y502012D01*
X771214D01*
X771634Y501903D01*
X773626Y499306D01*
X776545Y497067D01*
X779943Y495660D01*
X783590Y495179D01*
X787237Y495660D01*
X790635Y497067D01*
X793553Y499306D01*
X795793Y502225D01*
X797200Y505623D01*
X797681Y509270D01*
X797200Y512917D01*
X795793Y516315D01*
X793553Y519234D01*
X793197Y519507D01*
Y529590D01*
X792870Y532076D01*
X791910Y534394D01*
X790383Y536383D01*
X727157Y599609D01*
Y848467D01*
X768244Y889554D01*
X769585Y889099D01*
X769980Y886103D01*
X771387Y882705D01*
X773626Y879787D01*
X776223Y877794D01*
X776332Y877374D01*
Y876726D01*
X776223Y876306D01*
X773626Y874314D01*
X771387Y871395D01*
X769980Y867997D01*
X769713Y865972D01*
X738697Y834956D01*
X737170Y832966D01*
X736210Y830649D01*
X735883Y828163D01*
Y613410D01*
X736210Y610924D01*
X737170Y608606D01*
X738697Y606617D01*
X780607Y564707D01*
X782596Y563180D01*
X784913Y562220D01*
X787400Y561893D01*
X872321D01*
X892093Y542121D01*
Y522047D01*
X891737Y521773D01*
X889497Y518855D01*
X888313Y515995D01*
X886938D01*
X886284Y517574D01*
X884452Y519962D01*
X882064Y521794D01*
X879284Y522946D01*
X877570Y523171D01*
Y511810D01*
Y500449D01*
X879284Y500674D01*
X882064Y501826D01*
X884452Y503658D01*
X886284Y506046D01*
X886938Y507625D01*
X888313D01*
X889497Y504765D01*
X891737Y501847D01*
X894655Y499607D01*
X898053Y498200D01*
X901700Y497719D01*
X905347Y498200D01*
X908745Y499607D01*
X911664Y501847D01*
X913656Y504443D01*
X914076Y504552D01*
X914724D01*
X915144Y504443D01*
X917137Y501847D01*
X920055Y499607D01*
X923453Y498200D01*
X927100Y497719D01*
X930747Y498200D01*
X934145Y499607D01*
X937064Y501847D01*
X939303Y504765D01*
X940710Y508163D01*
X941190Y511810D01*
X940710Y515457D01*
X939303Y518855D01*
X937064Y521773D01*
X936707Y522047D01*
Y544830D01*
X936380Y547317D01*
X935420Y549634D01*
X933893Y551623D01*
X914843Y570673D01*
X914843Y570673D01*
X881505Y604012D01*
X879515Y605538D01*
X877198Y606498D01*
X874712Y606825D01*
X822764D01*
X783786Y645804D01*
X784241Y647145D01*
X787237Y647540D01*
X790635Y648947D01*
X793553Y651187D01*
X794026Y651803D01*
X854833D01*
X854906Y651706D01*
X857825Y649467D01*
X861223Y648060D01*
X864870Y647579D01*
X868517Y648060D01*
X871915Y649467D01*
X874834Y651706D01*
X877073Y654625D01*
X878480Y658023D01*
X878960Y661670D01*
X878480Y665317D01*
X877073Y668715D01*
X874834Y671634D01*
X872237Y673626D01*
X872128Y674046D01*
Y674694D01*
X872237Y675114D01*
X874834Y677106D01*
X877073Y680025D01*
X878480Y683423D01*
X878960Y687070D01*
X878480Y690717D01*
X877073Y694115D01*
X874834Y697033D01*
X872237Y699026D01*
X872128Y699446D01*
Y700094D01*
X872237Y700514D01*
X874834Y702506D01*
X877073Y705425D01*
X878480Y708823D01*
X878960Y712470D01*
X878480Y716117D01*
X877073Y719515D01*
X874834Y722433D01*
X872237Y724426D01*
X872128Y724846D01*
Y725494D01*
X872237Y725914D01*
X874834Y727906D01*
X877073Y730825D01*
X878480Y734223D01*
X878960Y737870D01*
X878480Y741517D01*
X877073Y744915D01*
X874834Y747833D01*
X872237Y749826D01*
X872128Y750246D01*
Y750894D01*
X872237Y751314D01*
X874834Y753307D01*
X877073Y756225D01*
X878480Y759623D01*
X878960Y763270D01*
X878480Y766917D01*
X877073Y770315D01*
X874834Y773233D01*
X872237Y775226D01*
X872128Y775646D01*
Y776294D01*
X872237Y776714D01*
X874834Y778707D01*
X877073Y781625D01*
X878480Y785023D01*
X878960Y788670D01*
X878480Y792317D01*
X877073Y795715D01*
X874834Y798633D01*
X872237Y800626D01*
X872128Y801046D01*
Y801694D01*
X872237Y802114D01*
X874834Y804107D01*
X875107Y804463D01*
X881846D01*
X933642Y752667D01*
X935631Y751140D01*
X937949Y750180D01*
X940435Y749853D01*
X950754D01*
X951195Y749300D01*
X950583Y748030D01*
X947420D01*
Y720090D01*
X975360D01*
Y727524D01*
X976040Y727806D01*
X978295Y729536D01*
X1042749Y793990D01*
X1044479Y796245D01*
X1045567Y798871D01*
X1045938Y801689D01*
Y1087120D01*
Y1222310D01*
X1048525Y1224897D01*
X1122312D01*
X1122938Y1223627D01*
X1121586Y1221864D01*
X1120434Y1219084D01*
X1120209Y1217370D01*
X1131570D01*
Y1216100D01*
D01*
Y1217370D01*
X1142931D01*
X1142706Y1219084D01*
X1141554Y1221864D01*
X1140202Y1223627D01*
X1140828Y1224897D01*
X1336535D01*
X1377950Y1183482D01*
Y1170940D01*
X1405890D01*
Y1183482D01*
X1445960Y1223552D01*
X1518500D01*
X1554602Y1187450D01*
X1495346Y1128194D01*
X1493616Y1125939D01*
X1492528Y1123313D01*
X1492157Y1120495D01*
Y979250D01*
X1484550D01*
Y942260D01*
X1521540D01*
Y979250D01*
X1513933D01*
Y1115985D01*
X1571428Y1173480D01*
X1583970D01*
Y1201420D01*
X1571428D01*
X1530709Y1242139D01*
X1528454Y1243869D01*
X1525828Y1244957D01*
X1523010Y1245328D01*
X1441450D01*
X1438632Y1244957D01*
X1436006Y1243869D01*
X1433751Y1242139D01*
X1391920Y1200308D01*
X1348744Y1243484D01*
X1346489Y1245214D01*
X1343863Y1246302D01*
X1341045Y1246673D01*
D02*
G37*
G36*
X1315720Y942834D02*
X1311471Y942499D01*
X1307326Y941504D01*
X1303388Y939873D01*
X1299754Y937646D01*
X1296512Y934878D01*
X1293744Y931636D01*
X1291517Y928002D01*
X1289886Y924064D01*
X1288891Y919919D01*
X1288556Y915670D01*
X1288891Y911421D01*
X1289886Y907276D01*
X1291517Y903338D01*
X1293744Y899704D01*
X1296512Y896462D01*
X1299754Y893694D01*
X1303388Y891467D01*
X1307326Y889836D01*
X1311471Y888841D01*
X1315720Y888506D01*
X1319969Y888841D01*
X1324114Y889836D01*
X1328052Y891467D01*
X1331686Y893694D01*
X1334928Y896462D01*
X1337696Y899704D01*
X1339923Y903338D01*
X1341554Y907276D01*
X1342549Y911421D01*
X1342884Y915670D01*
X1342549Y919919D01*
X1341554Y924064D01*
X1339923Y928002D01*
X1337696Y931636D01*
X1334928Y934878D01*
X1331686Y937646D01*
X1328052Y939873D01*
X1324114Y941504D01*
X1319969Y942499D01*
X1315720Y942834D01*
D02*
G37*
G36*
X1668780Y940294D02*
X1664531Y939959D01*
X1660386Y938964D01*
X1656448Y937333D01*
X1652814Y935106D01*
X1649572Y932338D01*
X1646804Y929096D01*
X1644577Y925462D01*
X1642946Y921524D01*
X1641951Y917379D01*
X1641616Y913130D01*
X1641951Y908881D01*
X1642946Y904736D01*
X1644577Y900798D01*
X1646804Y897164D01*
X1649572Y893922D01*
X1652814Y891154D01*
X1656448Y888927D01*
X1660386Y887296D01*
X1664531Y886301D01*
X1668780Y885966D01*
X1673029Y886301D01*
X1677174Y887296D01*
X1681112Y888927D01*
X1684746Y891154D01*
X1687988Y893922D01*
X1690756Y897164D01*
X1692983Y900798D01*
X1694614Y904736D01*
X1695609Y908881D01*
X1695944Y913130D01*
X1695609Y917379D01*
X1694614Y921524D01*
X1692983Y925462D01*
X1690756Y929096D01*
X1687988Y932338D01*
X1684746Y935106D01*
X1681112Y937333D01*
X1677174Y938964D01*
X1673029Y939959D01*
X1668780Y940294D01*
D02*
G37*
G36*
X1155700Y643114D02*
X1151451Y642779D01*
X1147306Y641784D01*
X1143368Y640153D01*
X1139734Y637926D01*
X1136492Y635158D01*
X1133724Y631916D01*
X1131497Y628282D01*
X1129866Y624344D01*
X1128871Y620199D01*
X1128536Y615950D01*
X1128871Y611701D01*
X1129866Y607556D01*
X1131497Y603618D01*
X1133724Y599984D01*
X1136492Y596742D01*
X1139734Y593974D01*
X1143368Y591747D01*
X1147306Y590116D01*
X1151451Y589121D01*
X1155700Y588786D01*
X1159949Y589121D01*
X1164094Y590116D01*
X1168032Y591747D01*
X1171666Y593974D01*
X1174908Y596742D01*
X1177676Y599984D01*
X1179903Y603618D01*
X1181534Y607556D01*
X1182529Y611701D01*
X1182864Y615950D01*
X1182529Y620199D01*
X1181534Y624344D01*
X1179903Y628282D01*
X1177676Y631916D01*
X1174908Y635158D01*
X1171666Y637926D01*
X1168032Y640153D01*
X1164094Y641784D01*
X1159949Y642779D01*
X1155700Y643114D01*
D02*
G37*
G36*
X1508760Y640574D02*
X1504511Y640239D01*
X1500366Y639244D01*
X1496428Y637613D01*
X1492794Y635386D01*
X1489552Y632618D01*
X1486784Y629376D01*
X1484557Y625742D01*
X1482926Y621804D01*
X1481931Y617659D01*
X1481596Y613410D01*
X1481931Y609161D01*
X1482926Y605016D01*
X1484557Y601078D01*
X1486784Y597444D01*
X1489552Y594202D01*
X1492794Y591434D01*
X1496428Y589207D01*
X1500366Y587576D01*
X1504511Y586581D01*
X1508760Y586246D01*
X1513009Y586581D01*
X1517154Y587576D01*
X1521092Y589207D01*
X1524726Y591434D01*
X1527968Y594202D01*
X1530736Y597444D01*
X1532963Y601078D01*
X1534594Y605016D01*
X1535589Y609161D01*
X1535924Y613410D01*
X1535589Y617659D01*
X1534594Y621804D01*
X1532963Y625742D01*
X1530736Y629376D01*
X1527968Y632618D01*
X1524726Y635386D01*
X1521092Y637613D01*
X1517154Y639244D01*
X1513009Y640239D01*
X1508760Y640574D01*
D02*
G37*
G36*
X1337390Y584280D02*
X1322705D01*
Y569595D01*
X1337390D01*
Y584280D01*
D02*
G37*
G36*
X1320165D02*
X1305480D01*
Y569595D01*
X1320165D01*
Y584280D01*
D02*
G37*
G36*
X1690450Y581740D02*
X1675765D01*
Y567055D01*
X1690450D01*
Y581740D01*
D02*
G37*
G36*
X1673225D02*
X1658540D01*
Y567055D01*
X1673225D01*
Y581740D01*
D02*
G37*
G36*
X1337390Y567055D02*
X1322705D01*
Y552370D01*
X1337390D01*
Y567055D01*
D02*
G37*
G36*
X1320165D02*
X1305480D01*
Y552370D01*
X1320165D01*
Y567055D01*
D02*
G37*
G36*
X1690450Y564515D02*
X1675765D01*
Y549830D01*
X1690450D01*
Y564515D01*
D02*
G37*
G36*
X1673225D02*
X1658540D01*
Y549830D01*
X1673225D01*
Y564515D01*
D02*
G37*
G36*
X248920Y534580D02*
Y527050D01*
X256450D01*
X256311Y528101D01*
X255415Y530263D01*
X253990Y532120D01*
X252133Y533545D01*
X249971Y534441D01*
X248920Y534580D01*
D02*
G37*
G36*
X246380D02*
X245329Y534441D01*
X243167Y533545D01*
X241310Y532120D01*
X239885Y530263D01*
X238989Y528101D01*
X238850Y527050D01*
X246380D01*
Y534580D01*
D02*
G37*
G36*
X256450Y524510D02*
X248920D01*
Y516981D01*
X249971Y517119D01*
X252133Y518015D01*
X253990Y519440D01*
X255415Y521297D01*
X256311Y523459D01*
X256450Y524510D01*
D02*
G37*
G36*
X246380D02*
X238850D01*
X238989Y523459D01*
X239885Y521297D01*
X241310Y519440D01*
X243167Y518015D01*
X245329Y517119D01*
X246380Y516981D01*
Y524510D01*
D02*
G37*
G36*
X1736090Y494145D02*
X1732644Y493806D01*
X1729330Y492800D01*
X1726276Y491168D01*
X1723599Y488971D01*
X1721402Y486294D01*
X1719770Y483240D01*
X1718764Y479926D01*
X1718425Y476480D01*
X1718764Y473034D01*
X1719770Y469720D01*
X1721402Y466666D01*
X1723599Y463989D01*
X1726276Y461792D01*
X1729330Y460160D01*
X1732644Y459154D01*
X1736090Y458815D01*
X1739536Y459154D01*
X1742850Y460160D01*
X1745904Y461792D01*
X1748581Y463989D01*
X1750778Y466666D01*
X1752410Y469720D01*
X1753416Y473034D01*
X1753755Y476480D01*
X1753416Y479926D01*
X1752410Y483240D01*
X1750778Y486294D01*
X1748581Y488971D01*
X1745904Y491168D01*
X1742850Y492800D01*
X1739536Y493806D01*
X1736090Y494145D01*
D02*
G37*
G36*
X1446090D02*
X1442644Y493806D01*
X1439330Y492800D01*
X1436276Y491168D01*
X1433599Y488971D01*
X1431402Y486294D01*
X1429770Y483240D01*
X1428764Y479926D01*
X1428425Y476480D01*
X1428764Y473034D01*
X1429770Y469720D01*
X1431402Y466666D01*
X1433599Y463989D01*
X1436276Y461792D01*
X1439330Y460160D01*
X1442644Y459154D01*
X1446090Y458815D01*
X1449536Y459154D01*
X1452850Y460160D01*
X1455904Y461792D01*
X1458581Y463989D01*
X1460778Y466666D01*
X1462410Y469720D01*
X1463416Y473034D01*
X1463755Y476480D01*
X1463416Y479926D01*
X1462410Y483240D01*
X1460778Y486294D01*
X1458581Y488971D01*
X1455904Y491168D01*
X1452850Y492800D01*
X1449536Y493806D01*
X1446090Y494145D01*
D02*
G37*
G36*
X1383470D02*
X1380024Y493806D01*
X1376710Y492800D01*
X1373656Y491168D01*
X1370979Y488971D01*
X1368782Y486294D01*
X1367150Y483240D01*
X1366144Y479926D01*
X1365805Y476480D01*
X1366144Y473034D01*
X1367150Y469720D01*
X1368782Y466666D01*
X1370979Y463989D01*
X1373656Y461792D01*
X1376710Y460160D01*
X1380024Y459154D01*
X1383470Y458815D01*
X1386916Y459154D01*
X1390230Y460160D01*
X1393284Y461792D01*
X1395961Y463989D01*
X1398158Y466666D01*
X1399790Y469720D01*
X1400796Y473034D01*
X1401135Y476480D01*
X1400796Y479926D01*
X1399790Y483240D01*
X1398158Y486294D01*
X1395961Y488971D01*
X1393284Y491168D01*
X1390230Y492800D01*
X1386916Y493806D01*
X1383470Y494145D01*
D02*
G37*
G36*
X1093470D02*
X1090024Y493806D01*
X1086710Y492800D01*
X1083656Y491168D01*
X1080979Y488971D01*
X1078782Y486294D01*
X1077150Y483240D01*
X1076144Y479926D01*
X1075805Y476480D01*
X1076144Y473034D01*
X1077150Y469720D01*
X1078782Y466666D01*
X1080979Y463989D01*
X1083656Y461792D01*
X1086710Y460160D01*
X1090024Y459154D01*
X1093470Y458815D01*
X1096916Y459154D01*
X1100230Y460160D01*
X1103284Y461792D01*
X1105961Y463989D01*
X1108158Y466666D01*
X1109790Y469720D01*
X1110796Y473034D01*
X1111135Y476480D01*
X1110796Y479926D01*
X1109790Y483240D01*
X1108158Y486294D01*
X1105961Y488971D01*
X1103284Y491168D01*
X1100230Y492800D01*
X1096916Y493806D01*
X1093470Y494145D01*
D02*
G37*
G36*
X927100Y443218D02*
X923816Y442786D01*
X920756Y441519D01*
X918128Y439502D01*
X916111Y436874D01*
X915087Y434402D01*
X913713D01*
X912689Y436874D01*
X910672Y439502D01*
X908044Y441519D01*
X904984Y442786D01*
X901700Y443218D01*
X898416Y442786D01*
X895356Y441519D01*
X892728Y439502D01*
X890711Y436874D01*
X889444Y433814D01*
X889012Y430530D01*
X889444Y427246D01*
X890711Y424186D01*
X890823Y424041D01*
Y368439D01*
X890711Y368294D01*
X889444Y365234D01*
X889012Y361950D01*
X889444Y358666D01*
X890711Y355606D01*
X892728Y352978D01*
X895356Y350961D01*
X898416Y349694D01*
X901700Y349262D01*
X904984Y349694D01*
X908044Y350961D01*
X910672Y352978D01*
X912689Y355606D01*
X913250Y356961D01*
X914520Y356708D01*
Y349370D01*
X939680D01*
Y374530D01*
X937977D01*
Y424041D01*
X938089Y424186D01*
X939356Y427246D01*
X939789Y430530D01*
X939356Y433814D01*
X938089Y436874D01*
X936072Y439502D01*
X933444Y441519D01*
X930384Y442786D01*
X927100Y443218D01*
D02*
G37*
G36*
X886340Y440570D02*
X877570D01*
Y431800D01*
X886340D01*
Y440570D01*
D02*
G37*
G36*
X875030D02*
X866260D01*
Y431800D01*
X875030D01*
Y440570D01*
D02*
G37*
G36*
X886340Y429260D02*
X877570D01*
Y420490D01*
X886340D01*
Y429260D01*
D02*
G37*
G36*
X875030D02*
X866260D01*
Y420490D01*
X875030D01*
Y429260D01*
D02*
G37*
G36*
X877570Y371909D02*
Y363220D01*
X886259D01*
X886082Y364571D01*
X885070Y367013D01*
X883461Y369111D01*
X881363Y370720D01*
X878921Y371732D01*
X877570Y371909D01*
D02*
G37*
G36*
X875030D02*
X873679Y371732D01*
X871237Y370720D01*
X869139Y369111D01*
X867530Y367013D01*
X866518Y364571D01*
X866341Y363220D01*
X875030D01*
Y371909D01*
D02*
G37*
G36*
X886259Y360680D02*
X877570D01*
Y351991D01*
X878921Y352168D01*
X881363Y353180D01*
X883461Y354789D01*
X885070Y356887D01*
X886082Y359329D01*
X886259Y360680D01*
D02*
G37*
G36*
X875030D02*
X866341D01*
X866518Y359329D01*
X867530Y356887D01*
X869139Y354789D01*
X871237Y353180D01*
X873679Y352168D01*
X875030Y351991D01*
Y360680D01*
D02*
G37*
G36*
X1228090Y359341D02*
Y349250D01*
X1238181D01*
X1237956Y350964D01*
X1236804Y353744D01*
X1234972Y356132D01*
X1232584Y357964D01*
X1229804Y359116D01*
X1228090Y359341D01*
D02*
G37*
G36*
X1225550D02*
X1223836Y359116D01*
X1221056Y357964D01*
X1218668Y356132D01*
X1216836Y353744D01*
X1215684Y350964D01*
X1215459Y349250D01*
X1225550D01*
Y359341D01*
D02*
G37*
G36*
X1092760Y358071D02*
Y347980D01*
X1102851D01*
X1102626Y349694D01*
X1101474Y352474D01*
X1099642Y354862D01*
X1097254Y356694D01*
X1094474Y357846D01*
X1092760Y358071D01*
D02*
G37*
G36*
X1567180D02*
Y347980D01*
X1577271D01*
X1577046Y349694D01*
X1575894Y352474D01*
X1574062Y354862D01*
X1571674Y356694D01*
X1568894Y357846D01*
X1567180Y358071D01*
D02*
G37*
G36*
X1564640D02*
X1562926Y357846D01*
X1560146Y356694D01*
X1557758Y354862D01*
X1555926Y352474D01*
X1554774Y349694D01*
X1554549Y347980D01*
X1564640D01*
Y358071D01*
D02*
G37*
G36*
X1383030Y358140D02*
X1372870D01*
Y347980D01*
X1383030D01*
Y358140D01*
D02*
G37*
G36*
X1370330D02*
X1360170D01*
Y347980D01*
X1370330D01*
Y358140D01*
D02*
G37*
G36*
X1090220Y358071D02*
X1088506Y357846D01*
X1085726Y356694D01*
X1083338Y354862D01*
X1081506Y352474D01*
X1080354Y349694D01*
X1080129Y347980D01*
X1090220D01*
Y358071D01*
D02*
G37*
G36*
X1102851Y345440D02*
X1092760D01*
Y335349D01*
X1094474Y335574D01*
X1097254Y336726D01*
X1099642Y338558D01*
X1101474Y340946D01*
X1102626Y343726D01*
X1102851Y345440D01*
D02*
G37*
G36*
X1577271D02*
X1567180D01*
Y335349D01*
X1568894Y335574D01*
X1571674Y336726D01*
X1574062Y338558D01*
X1575894Y340946D01*
X1577046Y343726D01*
X1577271Y345440D01*
D02*
G37*
G36*
X1564640D02*
X1554549D01*
X1554774Y343726D01*
X1555926Y340946D01*
X1557758Y338558D01*
X1560146Y336726D01*
X1562926Y335574D01*
X1564640Y335349D01*
Y345440D01*
D02*
G37*
G36*
X1090220D02*
X1080129D01*
X1080354Y343726D01*
X1081506Y340946D01*
X1083338Y338558D01*
X1085726Y336726D01*
X1088506Y335574D01*
X1090220Y335349D01*
Y345440D01*
D02*
G37*
G36*
X1168480Y586820D02*
X1131490D01*
Y565228D01*
X1118791Y552529D01*
X1117061Y550274D01*
X1115973Y547648D01*
X1115602Y544830D01*
Y360680D01*
X1112520D01*
Y332740D01*
X1125062D01*
X1137206Y320596D01*
X1139461Y318866D01*
X1142087Y317778D01*
X1144905Y317407D01*
X1257935D01*
X1260753Y317778D01*
X1263379Y318866D01*
X1265634Y320596D01*
X1279048Y334010D01*
X1291590D01*
Y337092D01*
X1295341D01*
X1313107Y319326D01*
X1315362Y317596D01*
X1317988Y316508D01*
X1320806Y316137D01*
X1402715D01*
X1405533Y316508D01*
X1408159Y317596D01*
X1410414Y319326D01*
X1423906Y332818D01*
X1426047Y333100D01*
X1429445Y334507D01*
X1431159Y335822D01*
X1501140D01*
Y332740D01*
X1529080D01*
Y345282D01*
X1554559Y370761D01*
X1556289Y373016D01*
X1557377Y375642D01*
X1557748Y378460D01*
Y521970D01*
X1557377Y524788D01*
X1556289Y527414D01*
X1554559Y529669D01*
X1521540Y562688D01*
Y584280D01*
X1484550D01*
Y547290D01*
X1506142D01*
X1535972Y517460D01*
Y382970D01*
X1513682Y360680D01*
X1501140D01*
Y357598D01*
X1431159D01*
X1429445Y358913D01*
X1426047Y360320D01*
X1422400Y360801D01*
X1418753Y360320D01*
X1415355Y358913D01*
X1412437Y356674D01*
X1410197Y353755D01*
X1408790Y350357D01*
X1408508Y348216D01*
X1398205Y337913D01*
X1383030D01*
Y345440D01*
X1360170D01*
Y337913D01*
X1325316D01*
X1307551Y355679D01*
X1305296Y357409D01*
X1302670Y358497D01*
X1299851Y358868D01*
X1291590D01*
Y361950D01*
X1263650D01*
Y349408D01*
X1253425Y339183D01*
X1236078D01*
X1235452Y340453D01*
X1236804Y342216D01*
X1237956Y344996D01*
X1238181Y346710D01*
X1226820D01*
X1215459D01*
X1215684Y344996D01*
X1216836Y342216D01*
X1218188Y340453D01*
X1217562Y339183D01*
X1149415D01*
X1140460Y348138D01*
Y360680D01*
X1137378D01*
Y540320D01*
X1146888Y549830D01*
X1168480D01*
Y586820D01*
D02*
G37*
G36*
X1709420Y359527D02*
X1704690Y359061D01*
X1700141Y357681D01*
X1695949Y355440D01*
X1692275Y352425D01*
X1689260Y348751D01*
X1687019Y344559D01*
X1685639Y340010D01*
X1685173Y335280D01*
X1685639Y330550D01*
X1687019Y326001D01*
X1689260Y321809D01*
X1692275Y318135D01*
X1695949Y315120D01*
X1700141Y312879D01*
X1704690Y311499D01*
X1709420Y311033D01*
X1714150Y311499D01*
X1718699Y312879D01*
X1722891Y315120D01*
X1726565Y318135D01*
X1729580Y321809D01*
X1731821Y326001D01*
X1733201Y330550D01*
X1733667Y335280D01*
X1733201Y340010D01*
X1731821Y344559D01*
X1729580Y348751D01*
X1726565Y352425D01*
X1722891Y355440D01*
X1718699Y357681D01*
X1714150Y359061D01*
X1709420Y359527D01*
D02*
G37*
%LPD*%
G36*
X853440Y1107440D02*
X858773D01*
X859025Y1106170D01*
X857825Y1105673D01*
X854906Y1103434D01*
X854434Y1102817D01*
X793627D01*
X793553Y1102914D01*
X790635Y1105153D01*
X787775Y1106337D01*
Y1107712D01*
X789354Y1108366D01*
X790184Y1109003D01*
X853440D01*
Y1107440D01*
D02*
G37*
G36*
X515620Y1104380D02*
X518346D01*
X518975Y1103110D01*
X518751Y1102817D01*
X451127D01*
X450653Y1103434D01*
X448057Y1105426D01*
X447948Y1105846D01*
Y1106494D01*
X448057Y1106914D01*
X450653Y1108906D01*
X450727Y1109003D01*
X515620D01*
Y1104380D01*
D02*
G37*
G36*
X854906Y1083506D02*
X857503Y1081514D01*
X857612Y1081094D01*
Y1080446D01*
X857503Y1080026D01*
X854906Y1078034D01*
X854434Y1077417D01*
X793627D01*
X793553Y1077514D01*
X790957Y1079506D01*
X790848Y1079926D01*
Y1080574D01*
X790957Y1080994D01*
X793553Y1082987D01*
X794026Y1083603D01*
X854833D01*
X854906Y1083506D01*
D02*
G37*
G36*
X519627Y1082987D02*
X522223Y1080994D01*
X522332Y1080574D01*
Y1079926D01*
X522223Y1079506D01*
X519627Y1077514D01*
X519553Y1077417D01*
X451127D01*
X450653Y1078034D01*
X448057Y1080026D01*
X447948Y1080446D01*
Y1081094D01*
X448057Y1081514D01*
X450653Y1083506D01*
X450727Y1083603D01*
X519154D01*
X519627Y1082987D01*
D02*
G37*
G36*
X854906Y1058107D02*
X857503Y1056114D01*
X857612Y1055694D01*
Y1055046D01*
X857503Y1054626D01*
X854906Y1052634D01*
X854434Y1052017D01*
X793627D01*
X793553Y1052113D01*
X790957Y1054106D01*
X790848Y1054526D01*
Y1055174D01*
X790957Y1055594D01*
X793553Y1057587D01*
X794026Y1058203D01*
X854833D01*
X854906Y1058107D01*
D02*
G37*
G36*
X519627Y1057587D02*
X522223Y1055594D01*
X522332Y1055174D01*
Y1054526D01*
X522223Y1054106D01*
X519627Y1052113D01*
X519553Y1052017D01*
X451127D01*
X450653Y1052634D01*
X448057Y1054626D01*
X447948Y1055046D01*
Y1055694D01*
X448057Y1056114D01*
X450653Y1058107D01*
X450727Y1058203D01*
X519154D01*
X519627Y1057587D01*
D02*
G37*
G36*
X854906Y1032707D02*
X857503Y1030714D01*
X857612Y1030294D01*
Y1029646D01*
X857503Y1029226D01*
X854906Y1027234D01*
X854434Y1026617D01*
X793627D01*
X793553Y1026713D01*
X790957Y1028706D01*
X790848Y1029126D01*
Y1029774D01*
X790957Y1030194D01*
X793553Y1032187D01*
X794026Y1032803D01*
X854833D01*
X854906Y1032707D01*
D02*
G37*
G36*
X519627Y1032187D02*
X522223Y1030194D01*
X522332Y1029774D01*
Y1029126D01*
X522223Y1028706D01*
X519627Y1026713D01*
X519553Y1026617D01*
X451127D01*
X450653Y1027234D01*
X448057Y1029226D01*
X447948Y1029646D01*
Y1030294D01*
X448057Y1030714D01*
X450653Y1032707D01*
X450727Y1032803D01*
X519154D01*
X519627Y1032187D01*
D02*
G37*
G36*
X292403Y1043388D02*
X292353Y1043196D01*
X289757Y1041204D01*
X287517Y1038285D01*
X286110Y1034887D01*
X286006Y1034101D01*
X284510Y1032953D01*
X272607Y1021050D01*
X272441Y1020834D01*
X271238Y1021242D01*
Y1044220D01*
X271556Y1044537D01*
X291803D01*
X292403Y1043388D01*
D02*
G37*
G36*
X854906Y1007307D02*
X857503Y1005314D01*
X857612Y1004894D01*
Y1004246D01*
X857503Y1003826D01*
X854906Y1001833D01*
X854434Y1001217D01*
X793627D01*
X793553Y1001313D01*
X790957Y1003306D01*
X790848Y1003726D01*
Y1004374D01*
X790957Y1004794D01*
X793553Y1006786D01*
X794026Y1007403D01*
X854833D01*
X854906Y1007307D01*
D02*
G37*
G36*
X519627Y1006786D02*
X522223Y1004794D01*
X522332Y1004374D01*
Y1003726D01*
X522223Y1003306D01*
X519627Y1001313D01*
X519553Y1001217D01*
X451127D01*
X450653Y1001833D01*
X448057Y1003826D01*
X447948Y1004246D01*
Y1004894D01*
X448057Y1005314D01*
X450653Y1007307D01*
X450727Y1007403D01*
X519154D01*
X519627Y1006786D01*
D02*
G37*
G36*
X408497Y959677D02*
X410486Y958150D01*
X412803Y957190D01*
X415290Y956863D01*
X430453D01*
X430727Y956507D01*
X433323Y954514D01*
X433432Y954094D01*
Y953446D01*
X433323Y953026D01*
X430727Y951033D01*
X430453Y950677D01*
X339733D01*
X299916Y990494D01*
X300371Y991835D01*
X303367Y992230D01*
X306765Y993637D01*
X309683Y995876D01*
X311676Y998473D01*
X312096Y998582D01*
X312744D01*
X313164Y998473D01*
X315156Y995876D01*
X318075Y993637D01*
X321473Y992230D01*
X325120Y991749D01*
X328767Y992230D01*
X332165Y993637D01*
X335084Y995876D01*
X337323Y998795D01*
X338730Y1002193D01*
X339211Y1005840D01*
X338730Y1009487D01*
X337323Y1012885D01*
X335084Y1015804D01*
X332487Y1017796D01*
X332378Y1018216D01*
Y1018864D01*
X332487Y1019284D01*
X335084Y1021276D01*
X335357Y1021633D01*
X346541D01*
X408497Y959677D01*
D02*
G37*
G36*
X1024162Y1084421D02*
Y806199D01*
X976583Y758620D01*
X975444Y759182D01*
X975480Y759460D01*
X975000Y763107D01*
X973593Y766505D01*
X971354Y769424D01*
X968757Y771416D01*
X968648Y771836D01*
Y772484D01*
X968757Y772904D01*
X971354Y774896D01*
X973593Y777815D01*
X975000Y781213D01*
X975051Y781598D01*
X1008823Y815370D01*
X1010350Y817360D01*
X1011310Y819677D01*
X1011637Y822163D01*
Y852093D01*
X1011993Y852366D01*
X1014233Y855285D01*
X1015640Y858683D01*
X1016121Y862330D01*
X1015640Y865977D01*
X1014233Y869375D01*
X1011993Y872293D01*
X1009075Y874533D01*
X1005677Y875940D01*
X1002030Y876421D01*
X998383Y875940D01*
X994985Y874533D01*
X992066Y872293D01*
X989827Y869375D01*
X988420Y865977D01*
X987940Y862330D01*
X988420Y858683D01*
X989827Y855285D01*
X992066Y852366D01*
X992423Y852093D01*
Y826143D01*
X973845Y807565D01*
X972642Y808158D01*
X972751Y808990D01*
X961390D01*
X950029D01*
X950254Y807276D01*
X951406Y804496D01*
X953238Y802108D01*
X955626Y800276D01*
X957205Y799622D01*
Y798247D01*
X954345Y797063D01*
X951426Y794824D01*
X949187Y791905D01*
X947780Y788507D01*
X947299Y784860D01*
X947780Y781213D01*
X949187Y777815D01*
X951426Y774896D01*
X954023Y772904D01*
X954132Y772484D01*
Y771836D01*
X954023Y771416D01*
X951426Y769424D01*
X951153Y769067D01*
X944414D01*
X892618Y820863D01*
X890629Y822390D01*
X888311Y823350D01*
X885825Y823677D01*
X875107D01*
X874834Y824034D01*
X872237Y826026D01*
X872128Y826446D01*
Y827094D01*
X872237Y827514D01*
X874834Y829507D01*
X877073Y832425D01*
X878480Y835823D01*
X878960Y839470D01*
X878480Y843117D01*
X877073Y846515D01*
X874834Y849434D01*
X872237Y851426D01*
X872128Y851846D01*
Y852494D01*
X872237Y852914D01*
X874834Y854906D01*
X877073Y857825D01*
X878480Y861223D01*
X878960Y864870D01*
X878480Y868517D01*
X877073Y871915D01*
X874834Y874834D01*
X872237Y876826D01*
X872128Y877246D01*
Y877894D01*
X872237Y878314D01*
X874834Y880306D01*
X877073Y883225D01*
X878480Y886623D01*
X878960Y890270D01*
X878480Y893917D01*
X877073Y897315D01*
X874834Y900234D01*
X872237Y902226D01*
X872128Y902646D01*
Y903294D01*
X872237Y903714D01*
X874834Y905706D01*
X877073Y908625D01*
X878480Y912023D01*
X878960Y915670D01*
X878480Y919317D01*
X877073Y922715D01*
X874834Y925633D01*
X872237Y927626D01*
X872128Y928046D01*
Y928694D01*
X872237Y929114D01*
X874834Y931106D01*
X877073Y934025D01*
X878480Y937423D01*
X878960Y941070D01*
X878480Y944717D01*
X877073Y948115D01*
X874834Y951033D01*
X872237Y953026D01*
X872128Y953446D01*
Y954094D01*
X872237Y954514D01*
X874834Y956507D01*
X877073Y959425D01*
X878480Y962823D01*
X878875Y965819D01*
X880216Y966274D01*
X889614Y956876D01*
Y932119D01*
X889942Y929632D01*
X890901Y927315D01*
X892428Y925325D01*
X913068Y904685D01*
X913009Y904240D01*
X913490Y900593D01*
X914897Y897195D01*
X916858Y894640D01*
Y873054D01*
X915866Y872293D01*
X913627Y869375D01*
X912220Y865977D01*
X911740Y862330D01*
X912220Y858683D01*
X913627Y855285D01*
X915866Y852366D01*
X918785Y850127D01*
X922183Y848720D01*
X925830Y848240D01*
X929477Y848720D01*
X932875Y850127D01*
X935794Y852366D01*
X938033Y855285D01*
X939440Y858683D01*
X939921Y862330D01*
X939440Y865977D01*
X938033Y869375D01*
X936072Y871930D01*
Y893516D01*
X937064Y894277D01*
X939303Y897195D01*
X940710Y900593D01*
X941190Y904240D01*
X940710Y907887D01*
X939303Y911285D01*
X937064Y914203D01*
X934145Y916443D01*
X930747Y917850D01*
X927100Y918331D01*
X926655Y918272D01*
X908829Y936098D01*
Y960855D01*
X908501Y963342D01*
X907542Y965659D01*
X906015Y967649D01*
X880080Y993583D01*
X878584Y994732D01*
X878480Y995517D01*
X877073Y998915D01*
X874834Y1001833D01*
X872237Y1003826D01*
X872128Y1004246D01*
Y1004894D01*
X872237Y1005314D01*
X874834Y1007307D01*
X877073Y1010225D01*
X878480Y1013623D01*
X878960Y1017270D01*
X878480Y1020917D01*
X877073Y1024315D01*
X874834Y1027234D01*
X872237Y1029226D01*
X872128Y1029646D01*
Y1030294D01*
X872237Y1030714D01*
X874834Y1032707D01*
X877073Y1035625D01*
X878480Y1039023D01*
X878875Y1042019D01*
X880216Y1042474D01*
X915750Y1006941D01*
Y996637D01*
X914760Y994247D01*
X914279Y990600D01*
X914760Y986953D01*
X916167Y983555D01*
X918407Y980637D01*
X918763Y980363D01*
Y963813D01*
X917437Y962085D01*
X916030Y958687D01*
X915549Y955040D01*
X916030Y951393D01*
X917437Y947995D01*
X919677Y945077D01*
X922595Y942837D01*
X925993Y941430D01*
X929640Y940949D01*
X933287Y941430D01*
X936685Y942837D01*
X939604Y945077D01*
X941843Y947995D01*
X943250Y951393D01*
X943730Y955040D01*
X943250Y958687D01*
X941843Y962085D01*
X939604Y965004D01*
X937977Y966252D01*
Y980363D01*
X938334Y980637D01*
X940573Y983555D01*
X941980Y986953D01*
X942460Y990600D01*
X941980Y994247D01*
X940573Y997645D01*
X938334Y1000564D01*
X935415Y1002803D01*
X934964Y1002990D01*
Y1010920D01*
X934637Y1013407D01*
X933677Y1015724D01*
X932150Y1017713D01*
X880080Y1069783D01*
X878584Y1070931D01*
X878480Y1071717D01*
X877132Y1074973D01*
X877530Y1076042D01*
X877629Y1076243D01*
X956233D01*
X956507Y1075887D01*
X959103Y1073894D01*
X959212Y1073474D01*
Y1072826D01*
X959103Y1072406D01*
X956507Y1070414D01*
X954267Y1067495D01*
X952860Y1064097D01*
X952380Y1060450D01*
X952860Y1056803D01*
X954267Y1053405D01*
X956507Y1050487D01*
X959425Y1048247D01*
X962284Y1047063D01*
Y1045688D01*
X960706Y1045034D01*
X958318Y1043202D01*
X956486Y1040814D01*
X955334Y1038034D01*
X955109Y1036320D01*
X966470D01*
X977831D01*
X977722Y1037152D01*
X978925Y1037745D01*
X994963Y1021707D01*
Y1000837D01*
X994606Y1000564D01*
X992367Y997645D01*
X990960Y994247D01*
X990480Y990600D01*
X990960Y986953D01*
X992367Y983555D01*
X994606Y980637D01*
X997525Y978397D01*
X1000923Y976990D01*
X1004570Y976509D01*
X1008217Y976990D01*
X1011615Y978397D01*
X1014533Y980637D01*
X1016773Y983555D01*
X1018180Y986953D01*
X1018661Y990600D01*
X1018180Y994247D01*
X1016773Y997645D01*
X1014533Y1000564D01*
X1014177Y1000837D01*
Y1025687D01*
X1013850Y1028173D01*
X1012890Y1030490D01*
X1011363Y1032480D01*
X981680Y1062163D01*
X980184Y1063311D01*
X980080Y1064097D01*
X978673Y1067495D01*
X976433Y1070414D01*
X973837Y1072406D01*
X973728Y1072826D01*
Y1073474D01*
X973837Y1073894D01*
X976433Y1075887D01*
X978673Y1078805D01*
X980080Y1082203D01*
X980561Y1085850D01*
X980080Y1089497D01*
X978673Y1092895D01*
X976433Y1095814D01*
X976090Y1096077D01*
X976498Y1097280D01*
X980440D01*
Y1101643D01*
X1006941D01*
X1024162Y1084421D01*
D02*
G37*
G36*
X854906Y981907D02*
X857503Y979914D01*
X857612Y979494D01*
Y978846D01*
X857503Y978426D01*
X854906Y976433D01*
X854434Y975817D01*
X793627D01*
X793553Y975913D01*
X790957Y977906D01*
X790848Y978326D01*
Y978974D01*
X790957Y979394D01*
X793553Y981386D01*
X794026Y982003D01*
X854833D01*
X854906Y981907D01*
D02*
G37*
G36*
X519627Y981386D02*
X522223Y979394D01*
X522332Y978974D01*
Y978326D01*
X522223Y977906D01*
X519627Y975913D01*
X519553Y975817D01*
X451127D01*
X450653Y976433D01*
X448057Y978426D01*
X447948Y978846D01*
Y979494D01*
X448057Y979914D01*
X450653Y981907D01*
X450727Y982003D01*
X519154D01*
X519627Y981386D01*
D02*
G37*
G36*
X854906Y956507D02*
X857503Y954514D01*
X857612Y954094D01*
Y953446D01*
X857503Y953026D01*
X854906Y951033D01*
X854434Y950417D01*
X793627D01*
X793553Y950514D01*
X790957Y952506D01*
X790848Y952926D01*
Y953574D01*
X790957Y953994D01*
X793553Y955986D01*
X794026Y956603D01*
X854833D01*
X854906Y956507D01*
D02*
G37*
G36*
X519627Y955986D02*
X522223Y953994D01*
X522332Y953574D01*
Y952926D01*
X522223Y952506D01*
X519627Y950514D01*
X519553Y950417D01*
X451127D01*
X450653Y951033D01*
X448057Y953026D01*
X447948Y953446D01*
Y954094D01*
X448057Y954514D01*
X450653Y956507D01*
X450727Y956603D01*
X519154D01*
X519627Y955986D01*
D02*
G37*
G36*
X854906Y931106D02*
X857503Y929114D01*
X857612Y928694D01*
Y928046D01*
X857503Y927626D01*
X854906Y925633D01*
X854434Y925017D01*
X793627D01*
X793553Y925114D01*
X790957Y927106D01*
X790848Y927526D01*
Y928174D01*
X790957Y928594D01*
X793553Y930586D01*
X794026Y931203D01*
X854833D01*
X854906Y931106D01*
D02*
G37*
G36*
X519627Y930586D02*
X522223Y928594D01*
X522332Y928174D01*
Y927526D01*
X522223Y927106D01*
X519627Y925114D01*
X519553Y925017D01*
X451127D01*
X450653Y925633D01*
X448057Y927626D01*
X447948Y928046D01*
Y928694D01*
X448057Y929114D01*
X450653Y931106D01*
X450727Y931203D01*
X519154D01*
X519627Y930586D01*
D02*
G37*
G36*
X854906Y905706D02*
X857503Y903714D01*
X857612Y903294D01*
Y902646D01*
X857503Y902226D01*
X854906Y900234D01*
X854434Y899617D01*
X793627D01*
X793553Y899714D01*
X790957Y901706D01*
X790848Y902126D01*
Y902774D01*
X790957Y903194D01*
X793553Y905186D01*
X794026Y905803D01*
X854833D01*
X854906Y905706D01*
D02*
G37*
G36*
X519627Y905186D02*
X522223Y903194D01*
X522332Y902774D01*
Y902126D01*
X522223Y901706D01*
X519627Y899714D01*
X519553Y899617D01*
X451127D01*
X450653Y900234D01*
X448057Y902226D01*
X447948Y902646D01*
Y903294D01*
X448057Y903714D01*
X450653Y905706D01*
X450727Y905803D01*
X519154D01*
X519627Y905186D01*
D02*
G37*
G36*
X854906Y880306D02*
X857503Y878314D01*
X857612Y877894D01*
Y877246D01*
X857503Y876826D01*
X854906Y874834D01*
X854434Y874217D01*
X793627D01*
X793553Y874314D01*
X790957Y876306D01*
X790848Y876726D01*
Y877374D01*
X790957Y877794D01*
X793553Y879787D01*
X794026Y880403D01*
X854833D01*
X854906Y880306D01*
D02*
G37*
G36*
X519627Y879787D02*
X522223Y877794D01*
X522332Y877374D01*
Y876726D01*
X522223Y876306D01*
X519627Y874314D01*
X519553Y874217D01*
X451127D01*
X450653Y874834D01*
X448057Y876826D01*
X447948Y877246D01*
Y877894D01*
X448057Y878314D01*
X450653Y880306D01*
X450727Y880403D01*
X519154D01*
X519627Y879787D01*
D02*
G37*
G36*
X854906Y854906D02*
X857503Y852914D01*
X857612Y852494D01*
Y851846D01*
X857503Y851426D01*
X854906Y849434D01*
X854434Y848817D01*
X793627D01*
X793553Y848913D01*
X790957Y850906D01*
X790848Y851326D01*
Y851974D01*
X790957Y852394D01*
X793553Y854387D01*
X794026Y855003D01*
X854833D01*
X854906Y854906D01*
D02*
G37*
G36*
X519627Y854387D02*
X522223Y852394D01*
X522332Y851974D01*
Y851326D01*
X522223Y850906D01*
X519627Y848913D01*
X519553Y848817D01*
X451127D01*
X450653Y849434D01*
X448057Y851426D01*
X447948Y851846D01*
Y852494D01*
X448057Y852914D01*
X450653Y854906D01*
X450727Y855003D01*
X519154D01*
X519627Y854387D01*
D02*
G37*
G36*
X854906Y829507D02*
X857503Y827514D01*
X857612Y827094D01*
Y826446D01*
X857503Y826026D01*
X854906Y824034D01*
X854434Y823417D01*
X793627D01*
X793553Y823513D01*
X790957Y825506D01*
X790848Y825926D01*
Y826574D01*
X790957Y826994D01*
X793553Y828987D01*
X794026Y829603D01*
X854833D01*
X854906Y829507D01*
D02*
G37*
G36*
X519627Y828987D02*
X522223Y826994D01*
X522332Y826574D01*
Y825926D01*
X522223Y825506D01*
X519627Y823513D01*
X519553Y823417D01*
X451127D01*
X450653Y824034D01*
X448057Y826026D01*
X447948Y826446D01*
Y827094D01*
X448057Y827514D01*
X450653Y829507D01*
X450727Y829603D01*
X519154D01*
X519627Y828987D01*
D02*
G37*
G36*
X272607Y990630D02*
X328960Y934277D01*
X330950Y932750D01*
X333267Y931790D01*
X335753Y931463D01*
X430453D01*
X430727Y931106D01*
X433323Y929114D01*
X433432Y928694D01*
Y928046D01*
X433323Y927626D01*
X430727Y925633D01*
X428487Y922715D01*
X427080Y919317D01*
X427029Y918932D01*
X380557Y872460D01*
X379030Y870470D01*
X378070Y868153D01*
X377743Y865667D01*
Y825872D01*
X368297Y816425D01*
X367123Y816911D01*
Y842299D01*
X366752Y845117D01*
X365664Y847744D01*
X363934Y849999D01*
X357239Y856694D01*
X354983Y858424D01*
X352357Y859512D01*
X349539Y859883D01*
X343683D01*
Y862084D01*
X343312Y864902D01*
X342224Y867528D01*
X340494Y869783D01*
X330723Y879554D01*
X328468Y881284D01*
X325842Y882372D01*
X323023Y882743D01*
X294196D01*
X291998Y882454D01*
X271238D01*
Y990438D01*
X272441Y990846D01*
X272607Y990630D01*
D02*
G37*
G36*
X854906Y804107D02*
X857503Y802114D01*
X857612Y801694D01*
Y801046D01*
X857503Y800626D01*
X854906Y798633D01*
X854434Y798017D01*
X793627D01*
X793553Y798113D01*
X790957Y800106D01*
X790848Y800526D01*
Y801174D01*
X790957Y801594D01*
X793553Y803587D01*
X794026Y804203D01*
X854833D01*
X854906Y804107D01*
D02*
G37*
G36*
X519627Y803587D02*
X522223Y801594D01*
X522332Y801174D01*
Y800526D01*
X522223Y800106D01*
X519627Y798113D01*
X519553Y798017D01*
X451127D01*
X450653Y798633D01*
X448057Y800626D01*
X447948Y801046D01*
Y801694D01*
X448057Y802114D01*
X450653Y804107D01*
X450727Y804203D01*
X519154D01*
X519627Y803587D01*
D02*
G37*
G36*
X854906Y778707D02*
X857503Y776714D01*
X857612Y776294D01*
Y775646D01*
X857503Y775226D01*
X854906Y773233D01*
X854434Y772617D01*
X793627D01*
X793553Y772713D01*
X790957Y774706D01*
X790848Y775126D01*
Y775774D01*
X790957Y776194D01*
X793553Y778186D01*
X794026Y778803D01*
X854833D01*
X854906Y778707D01*
D02*
G37*
G36*
X519627Y778186D02*
X522223Y776194D01*
X522332Y775774D01*
Y775126D01*
X522223Y774706D01*
X519627Y772713D01*
X519553Y772617D01*
X451127D01*
X450653Y773233D01*
X448057Y775226D01*
X447948Y775646D01*
Y776294D01*
X448057Y776714D01*
X450653Y778707D01*
X450727Y778803D01*
X519154D01*
X519627Y778186D01*
D02*
G37*
G36*
X371393Y790689D02*
Y770263D01*
X349356Y748226D01*
X348015Y748681D01*
X347620Y751677D01*
X346213Y755075D01*
X343974Y757993D01*
X341377Y759986D01*
X341268Y760406D01*
Y761054D01*
X341377Y761474D01*
X343974Y763466D01*
X346213Y766385D01*
X347585Y769699D01*
X348771Y770190D01*
X350761Y771717D01*
X370219Y791175D01*
X371393Y790689D01*
D02*
G37*
G36*
X854906Y753307D02*
X857503Y751314D01*
X857612Y750894D01*
Y750246D01*
X857503Y749826D01*
X854906Y747833D01*
X854434Y747217D01*
X793627D01*
X793553Y747314D01*
X790957Y749306D01*
X790848Y749726D01*
Y750374D01*
X790957Y750794D01*
X793553Y752786D01*
X794026Y753403D01*
X854833D01*
X854906Y753307D01*
D02*
G37*
G36*
X519627Y752786D02*
X522223Y750794D01*
X522332Y750374D01*
Y749726D01*
X522223Y749306D01*
X519627Y747314D01*
X519553Y747217D01*
X451127D01*
X450653Y747833D01*
X448057Y749826D01*
X447948Y750246D01*
Y750894D01*
X448057Y751314D01*
X450653Y753307D01*
X450727Y753403D01*
X519154D01*
X519627Y752786D01*
D02*
G37*
G36*
X854906Y727906D02*
X857503Y725914D01*
X857612Y725494D01*
Y724846D01*
X857503Y724426D01*
X854906Y722433D01*
X854434Y721817D01*
X793627D01*
X793553Y721914D01*
X790957Y723906D01*
X790848Y724326D01*
Y724974D01*
X790957Y725394D01*
X793553Y727386D01*
X794026Y728003D01*
X854833D01*
X854906Y727906D01*
D02*
G37*
G36*
X519627Y727386D02*
X522223Y725394D01*
X522332Y724974D01*
Y724326D01*
X522223Y723906D01*
X519627Y721914D01*
X519553Y721817D01*
X451127D01*
X450653Y722433D01*
X448057Y724426D01*
X447948Y724846D01*
Y725494D01*
X448057Y725914D01*
X450653Y727906D01*
X450727Y728003D01*
X519154D01*
X519627Y727386D01*
D02*
G37*
G36*
X426685Y864219D02*
X427080Y861223D01*
X428487Y857825D01*
X430727Y854906D01*
X433323Y852914D01*
X433432Y852494D01*
Y851846D01*
X433323Y851426D01*
X430727Y849434D01*
X428487Y846515D01*
X427080Y843117D01*
X426600Y839470D01*
X427080Y835823D01*
X428487Y832425D01*
X430727Y829507D01*
X433323Y827514D01*
X433432Y827094D01*
Y826446D01*
X433323Y826026D01*
X430727Y824034D01*
X428487Y821115D01*
X427080Y817717D01*
X426600Y814070D01*
X427080Y810423D01*
X428487Y807025D01*
X430727Y804107D01*
X433323Y802114D01*
X433432Y801694D01*
Y801046D01*
X433323Y800626D01*
X430727Y798633D01*
X428487Y795715D01*
X427080Y792317D01*
X426600Y788670D01*
X427080Y785023D01*
X428487Y781625D01*
X430727Y778707D01*
X433323Y776714D01*
X433432Y776294D01*
Y775646D01*
X433323Y775226D01*
X430727Y773233D01*
X428487Y770315D01*
X427080Y766917D01*
X426976Y766132D01*
X425480Y764983D01*
X405386Y744889D01*
X403859Y742899D01*
X402899Y740582D01*
X402572Y738096D01*
Y647644D01*
X393603Y638675D01*
X392430Y639161D01*
Y657860D01*
X364490D01*
Y654143D01*
X306070D01*
Y657860D01*
X301148D01*
X271238Y687770D01*
Y787625D01*
X271556Y787942D01*
X299851D01*
X301243Y786874D01*
X301352Y786454D01*
Y785806D01*
X301243Y785386D01*
X298647Y783393D01*
X296407Y780475D01*
X295000Y777077D01*
X294896Y776292D01*
X293400Y775143D01*
X281497Y763240D01*
X279970Y761250D01*
X279010Y758933D01*
X278683Y756447D01*
Y739613D01*
X279010Y737127D01*
X279970Y734810D01*
X281497Y732820D01*
X293400Y720917D01*
X295390Y719390D01*
X297707Y718430D01*
X300193Y718103D01*
X342427D01*
X344913Y718430D01*
X347230Y719390D01*
X349220Y720917D01*
X387793Y759490D01*
X389320Y761480D01*
X390280Y763797D01*
X390607Y766283D01*
Y790010D01*
X409383Y808786D01*
X410910Y810776D01*
X411870Y813093D01*
X412197Y815580D01*
Y851527D01*
X425344Y864674D01*
X426685Y864219D01*
D02*
G37*
G36*
X854906Y702506D02*
X857503Y700514D01*
X857612Y700094D01*
Y699446D01*
X857503Y699026D01*
X854906Y697033D01*
X854434Y696417D01*
X793627D01*
X793553Y696514D01*
X790957Y698506D01*
X790848Y698926D01*
Y699574D01*
X790957Y699994D01*
X793553Y701986D01*
X794026Y702603D01*
X854833D01*
X854906Y702506D01*
D02*
G37*
G36*
X519627Y701986D02*
X522223Y699994D01*
X522332Y699574D01*
Y698926D01*
X522223Y698506D01*
X519627Y696514D01*
X519553Y696417D01*
X451127D01*
X450653Y697033D01*
X448057Y699026D01*
X447948Y699446D01*
Y700094D01*
X448057Y700514D01*
X450653Y702506D01*
X450727Y702603D01*
X519154D01*
X519627Y701986D01*
D02*
G37*
G36*
X854906Y677106D02*
X857503Y675114D01*
X857612Y674694D01*
Y674046D01*
X857503Y673626D01*
X854906Y671634D01*
X854434Y671017D01*
X793627D01*
X793553Y671114D01*
X790957Y673106D01*
X790848Y673526D01*
Y674174D01*
X790957Y674594D01*
X793553Y676587D01*
X794026Y677203D01*
X854833D01*
X854906Y677106D01*
D02*
G37*
G36*
X519627Y676587D02*
X522223Y674594D01*
X522332Y674174D01*
Y673526D01*
X522223Y673106D01*
X519627Y671114D01*
X519553Y671017D01*
X454660D01*
Y675640D01*
X451934D01*
X451305Y676910D01*
X451529Y677203D01*
X519154D01*
X519627Y676587D01*
D02*
G37*
G36*
X559353Y533569D02*
X507831Y482047D01*
X310049D01*
X281387Y510709D01*
Y560789D01*
X282657Y561220D01*
X283948Y559538D01*
X286336Y557706D01*
X289116Y556554D01*
X290830Y556329D01*
Y567690D01*
X292100D01*
Y568960D01*
X303461D01*
X303236Y570674D01*
X302084Y573454D01*
X300252Y575842D01*
X297864Y577674D01*
X296285Y578328D01*
Y579703D01*
X299145Y580887D01*
X300243Y581730D01*
X302026Y579947D01*
X304016Y578420D01*
X304228Y578332D01*
X326943Y555617D01*
Y528397D01*
X326586Y528124D01*
X324347Y525205D01*
X322940Y521807D01*
X322459Y518160D01*
X322940Y514513D01*
X324347Y511115D01*
X326586Y508196D01*
X329505Y505957D01*
X332903Y504550D01*
X336550Y504070D01*
X340197Y504550D01*
X343595Y505957D01*
X346513Y508196D01*
X348753Y511115D01*
X350160Y514513D01*
X350640Y518160D01*
X350160Y521807D01*
X348753Y525205D01*
X346513Y528124D01*
X346157Y528397D01*
Y559597D01*
X345830Y562083D01*
X344870Y564400D01*
X343343Y566390D01*
X316200Y593533D01*
X314210Y595060D01*
X313998Y595148D01*
X310533Y598613D01*
X308543Y600140D01*
X306226Y601100D01*
X303739Y601427D01*
X303312D01*
X302064Y603054D01*
X299467Y605046D01*
X299358Y605466D01*
Y606114D01*
X299467Y606534D01*
X302064Y608526D01*
X304303Y611445D01*
X305710Y614843D01*
X306190Y618490D01*
X305710Y622137D01*
X304303Y625535D01*
X302064Y628453D01*
X301720Y628717D01*
X302128Y629920D01*
X306070D01*
Y632367D01*
X364490D01*
Y629920D01*
X368432D01*
X368840Y628717D01*
X368497Y628453D01*
X366257Y625535D01*
X364850Y622137D01*
X364370Y618490D01*
X364850Y614843D01*
X366257Y611445D01*
X368497Y608526D01*
X371093Y606534D01*
X371202Y606114D01*
Y605466D01*
X371093Y605046D01*
X368497Y603054D01*
X366257Y600135D01*
X364850Y596737D01*
X364370Y593090D01*
X364850Y589443D01*
X366257Y586045D01*
X368497Y583126D01*
X371415Y580887D01*
X374274Y579703D01*
Y578328D01*
X372696Y577674D01*
X370308Y575842D01*
X368476Y573454D01*
X367324Y570674D01*
X367099Y568960D01*
X378460D01*
X389821D01*
X389596Y570674D01*
X388444Y573454D01*
X386612Y575842D01*
X384224Y577674D01*
X382645Y578328D01*
Y579703D01*
X385505Y580887D01*
X388424Y583126D01*
X388697Y583483D01*
X412581D01*
X477458Y518605D01*
X477399Y518160D01*
X477880Y514513D01*
X479287Y511115D01*
X481526Y508196D01*
X484445Y505957D01*
X487843Y504550D01*
X491490Y504070D01*
X495137Y504550D01*
X498535Y505957D01*
X501454Y508196D01*
X503693Y511115D01*
X505100Y514513D01*
X505580Y518160D01*
X505100Y521807D01*
X503693Y525205D01*
X501454Y528124D01*
X498535Y530363D01*
X495137Y531770D01*
X491490Y532251D01*
X491045Y532192D01*
X423353Y599883D01*
X421364Y601410D01*
X419047Y602370D01*
X416560Y602697D01*
X388697D01*
X388424Y603054D01*
X385827Y605046D01*
X385718Y605466D01*
Y606114D01*
X385827Y606534D01*
X388424Y608526D01*
X390328Y611008D01*
X391435Y611154D01*
X393752Y612114D01*
X395742Y613641D01*
X418972Y636871D01*
X420499Y638861D01*
X421459Y641178D01*
X421786Y643664D01*
Y734116D01*
X425344Y737674D01*
X426685Y737219D01*
X427080Y734223D01*
X428487Y730825D01*
X430727Y727906D01*
X433323Y725914D01*
X433432Y725494D01*
Y724846D01*
X433323Y724426D01*
X430727Y722433D01*
X428487Y719515D01*
X427080Y716117D01*
X426600Y712470D01*
X427080Y708823D01*
X428487Y705425D01*
X430727Y702506D01*
X433323Y700514D01*
X433432Y700094D01*
Y699446D01*
X433323Y699026D01*
X430727Y697033D01*
X428487Y694115D01*
X427080Y690717D01*
X426600Y687070D01*
X427080Y683423D01*
X428487Y680025D01*
X430727Y677106D01*
X431070Y676843D01*
X430662Y675640D01*
X426720D01*
Y647700D01*
X454660D01*
Y651803D01*
X519154D01*
X519627Y651187D01*
X522545Y648947D01*
X525943Y647540D01*
X529590Y647059D01*
X533237Y647540D01*
X536635Y648947D01*
X539553Y651187D01*
X541793Y654105D01*
X543200Y657503D01*
X543680Y661150D01*
X543200Y664797D01*
X541793Y668195D01*
X539553Y671114D01*
X536957Y673106D01*
X536848Y673526D01*
Y674174D01*
X536957Y674594D01*
X539553Y676587D01*
X541793Y679505D01*
X543200Y682903D01*
X543680Y686550D01*
X543200Y690197D01*
X541793Y693595D01*
X539553Y696514D01*
X536957Y698506D01*
X536848Y698926D01*
Y699574D01*
X536957Y699994D01*
X539553Y701986D01*
X541793Y704905D01*
X543200Y708303D01*
X543680Y711950D01*
X543200Y715597D01*
X541793Y718995D01*
X539553Y721914D01*
X536957Y723906D01*
X536848Y724326D01*
Y724974D01*
X536957Y725394D01*
X539553Y727386D01*
X541793Y730305D01*
X543200Y733703D01*
X543680Y737350D01*
X543200Y740997D01*
X541793Y744395D01*
X539553Y747314D01*
X536957Y749306D01*
X536848Y749726D01*
Y750374D01*
X536957Y750794D01*
X539553Y752786D01*
X541793Y755705D01*
X543200Y759103D01*
X543680Y762750D01*
X543200Y766397D01*
X541793Y769795D01*
X539553Y772713D01*
X536957Y774706D01*
X536848Y775126D01*
Y775774D01*
X536957Y776194D01*
X539553Y778186D01*
X541793Y781105D01*
X543200Y784503D01*
X543680Y788150D01*
X543200Y791797D01*
X541793Y795195D01*
X539553Y798113D01*
X536957Y800106D01*
X536848Y800526D01*
Y801174D01*
X536957Y801594D01*
X539553Y803587D01*
X541793Y806505D01*
X543200Y809903D01*
X543680Y813550D01*
X543200Y817197D01*
X541793Y820595D01*
X539553Y823513D01*
X536957Y825506D01*
X536848Y825926D01*
Y826574D01*
X536957Y826994D01*
X539553Y828987D01*
X539827Y829343D01*
X559353D01*
Y533569D01*
D02*
G37*
G36*
X811992Y590425D02*
X813981Y588898D01*
X816298Y587938D01*
X818785Y587611D01*
X870732D01*
X875966Y582377D01*
X875440Y581107D01*
X791379D01*
X755097Y617389D01*
Y645523D01*
X756367Y646049D01*
X811992Y590425D01*
D02*
G37*
G36*
X773626Y930586D02*
X776223Y928594D01*
X776332Y928174D01*
Y927526D01*
X776223Y927106D01*
X773626Y925114D01*
X771387Y922195D01*
X769980Y918797D01*
X769876Y918011D01*
X768380Y916863D01*
X710757Y859240D01*
X709230Y857250D01*
X708270Y854933D01*
X707943Y852447D01*
Y595630D01*
X708270Y593144D01*
X709230Y590826D01*
X710757Y588837D01*
X773983Y525611D01*
Y519507D01*
X773626Y519234D01*
X771634Y516637D01*
X771214Y516528D01*
X770566D01*
X770146Y516637D01*
X768154Y519234D01*
X765235Y521473D01*
X761837Y522880D01*
X761051Y522984D01*
X759903Y524480D01*
X742920Y541463D01*
X740930Y542990D01*
X738613Y543950D01*
X736127Y544277D01*
X715179D01*
X699871Y559586D01*
Y871704D01*
X759109Y930943D01*
X773353D01*
X773626Y930586D01*
D02*
G37*
%LPC*%
G36*
X914400Y1070519D02*
Y1062990D01*
X921929D01*
X921791Y1064041D01*
X920895Y1066203D01*
X919470Y1068060D01*
X917613Y1069485D01*
X915451Y1070381D01*
X914400Y1070519D01*
D02*
G37*
G36*
X911860D02*
X910809Y1070381D01*
X908647Y1069485D01*
X906790Y1068060D01*
X905365Y1066203D01*
X904469Y1064041D01*
X904331Y1062990D01*
X911860D01*
Y1070519D01*
D02*
G37*
G36*
X921929Y1060450D02*
X914400D01*
Y1052921D01*
X915451Y1053059D01*
X917613Y1053955D01*
X919470Y1055380D01*
X920895Y1057237D01*
X921791Y1059399D01*
X921929Y1060450D01*
D02*
G37*
G36*
X911860D02*
X904331D01*
X904469Y1059399D01*
X905365Y1057237D01*
X906790Y1055380D01*
X908647Y1053955D01*
X910809Y1053059D01*
X911860Y1052921D01*
Y1060450D01*
D02*
G37*
G36*
X977831Y1033780D02*
X967740D01*
Y1023689D01*
X969454Y1023914D01*
X972234Y1025066D01*
X974622Y1026898D01*
X976454Y1029286D01*
X977606Y1032066D01*
X977831Y1033780D01*
D02*
G37*
G36*
X965200D02*
X955109D01*
X955334Y1032066D01*
X956486Y1029286D01*
X958318Y1026898D01*
X960706Y1025066D01*
X963486Y1023914D01*
X965200Y1023689D01*
Y1033780D01*
D02*
G37*
G36*
X1007110Y966401D02*
Y956310D01*
X1017201D01*
X1016976Y958024D01*
X1015824Y960804D01*
X1013992Y963192D01*
X1011604Y965024D01*
X1008824Y966176D01*
X1007110Y966401D01*
D02*
G37*
G36*
X1004570D02*
X1002856Y966176D01*
X1000076Y965024D01*
X997688Y963192D01*
X995856Y960804D01*
X994704Y958024D01*
X994479Y956310D01*
X1004570D01*
Y966401D01*
D02*
G37*
G36*
X1017201Y953770D02*
X1007110D01*
Y943679D01*
X1008824Y943904D01*
X1011604Y945056D01*
X1013992Y946888D01*
X1015824Y949276D01*
X1016976Y952056D01*
X1017201Y953770D01*
D02*
G37*
G36*
X1004570D02*
X994479D01*
X994704Y952056D01*
X995856Y949276D01*
X997688Y946888D01*
X1000076Y945056D01*
X1002856Y943904D01*
X1004570Y943679D01*
Y953770D01*
D02*
G37*
G36*
Y915601D02*
Y905510D01*
X1014661D01*
X1014436Y907224D01*
X1013284Y910004D01*
X1011452Y912392D01*
X1009064Y914224D01*
X1006284Y915376D01*
X1004570Y915601D01*
D02*
G37*
G36*
X1002030D02*
X1000316Y915376D01*
X997536Y914224D01*
X995148Y912392D01*
X993316Y910004D01*
X992164Y907224D01*
X991939Y905510D01*
X1002030D01*
Y915601D01*
D02*
G37*
G36*
X1014661Y902970D02*
X1004570D01*
Y892879D01*
X1006284Y893104D01*
X1009064Y894256D01*
X1011452Y896088D01*
X1013284Y898476D01*
X1014436Y901256D01*
X1014661Y902970D01*
D02*
G37*
G36*
X1002030D02*
X991939D01*
X992164Y901256D01*
X993316Y898476D01*
X995148Y896088D01*
X997536Y894256D01*
X1000316Y893104D01*
X1002030Y892879D01*
Y902970D01*
D02*
G37*
G36*
X962660Y821621D02*
Y811530D01*
X972751D01*
X972526Y813244D01*
X971374Y816024D01*
X969542Y818412D01*
X967154Y820244D01*
X964374Y821396D01*
X962660Y821621D01*
D02*
G37*
G36*
X960120D02*
X958406Y821396D01*
X955626Y820244D01*
X953238Y818412D01*
X951406Y816024D01*
X950254Y813244D01*
X950029Y811530D01*
X960120D01*
Y821621D01*
D02*
G37*
G36*
X389821Y566420D02*
X379730D01*
Y556329D01*
X381444Y556554D01*
X384224Y557706D01*
X386612Y559538D01*
X388444Y561926D01*
X389596Y564706D01*
X389821Y566420D01*
D02*
G37*
G36*
X303461D02*
X293370D01*
Y556329D01*
X295084Y556554D01*
X297864Y557706D01*
X300252Y559538D01*
X302084Y561926D01*
X303236Y564706D01*
X303461Y566420D01*
D02*
G37*
G36*
X377190D02*
X367099D01*
X367324Y564706D01*
X368476Y561926D01*
X370308Y559538D01*
X372696Y557706D01*
X375476Y556554D01*
X377190Y556329D01*
Y566420D01*
D02*
G37*
G36*
X294640Y534580D02*
Y527050D01*
X302169D01*
X302031Y528101D01*
X301135Y530263D01*
X299710Y532120D01*
X297853Y533545D01*
X295691Y534441D01*
X294640Y534580D01*
D02*
G37*
G36*
X292100D02*
X291049Y534441D01*
X288887Y533545D01*
X287030Y532120D01*
X285605Y530263D01*
X284709Y528101D01*
X284571Y527050D01*
X292100D01*
Y534580D01*
D02*
G37*
G36*
X384810Y529521D02*
Y519430D01*
X394901D01*
X394676Y521144D01*
X393524Y523924D01*
X391692Y526312D01*
X389304Y528144D01*
X386524Y529296D01*
X384810Y529521D01*
D02*
G37*
G36*
X382270D02*
X380556Y529296D01*
X377776Y528144D01*
X375388Y526312D01*
X373556Y523924D01*
X372404Y521144D01*
X372179Y519430D01*
X382270D01*
Y529521D01*
D02*
G37*
G36*
X444500Y528251D02*
Y518160D01*
X454591D01*
X454366Y519874D01*
X453214Y522654D01*
X451382Y525042D01*
X448994Y526874D01*
X446214Y528026D01*
X444500Y528251D01*
D02*
G37*
G36*
X441960D02*
X440246Y528026D01*
X437466Y526874D01*
X435078Y525042D01*
X433246Y522654D01*
X432094Y519874D01*
X431869Y518160D01*
X441960D01*
Y528251D01*
D02*
G37*
G36*
X302169Y524510D02*
X294640D01*
Y516981D01*
X295691Y517119D01*
X297853Y518015D01*
X299710Y519440D01*
X301135Y521297D01*
X302031Y523459D01*
X302169Y524510D01*
D02*
G37*
G36*
X292100D02*
X284571D01*
X284709Y523459D01*
X285605Y521297D01*
X287030Y519440D01*
X288887Y518015D01*
X291049Y517119D01*
X292100Y516981D01*
Y524510D01*
D02*
G37*
G36*
X394901Y516890D02*
X384810D01*
Y506799D01*
X386524Y507024D01*
X389304Y508176D01*
X391692Y510008D01*
X393524Y512396D01*
X394676Y515176D01*
X394901Y516890D01*
D02*
G37*
G36*
X382270D02*
X372179D01*
X372404Y515176D01*
X373556Y512396D01*
X375388Y510008D01*
X377776Y508176D01*
X380556Y507024D01*
X382270Y506799D01*
Y516890D01*
D02*
G37*
G36*
X454591Y515620D02*
X444500D01*
Y505529D01*
X446214Y505754D01*
X448994Y506906D01*
X451382Y508738D01*
X453214Y511126D01*
X454366Y513906D01*
X454591Y515620D01*
D02*
G37*
G36*
X441960D02*
X431869D01*
X432094Y513906D01*
X433246Y511126D01*
X435078Y508738D01*
X437466Y506906D01*
X440246Y505754D01*
X441960Y505529D01*
Y515620D01*
D02*
G37*
%LPD*%
G36*
X916111Y424186D02*
X918128Y421558D01*
X918763Y421071D01*
Y374530D01*
X914520D01*
Y367192D01*
X913250Y366939D01*
X912689Y368294D01*
X910672Y370922D01*
X910037Y371409D01*
Y421071D01*
X910672Y421558D01*
X912689Y424186D01*
X913713Y426658D01*
X915087D01*
X916111Y424186D01*
D02*
G37*
D21*
X1709420Y335280D02*
D03*
X1720850Y1182370D02*
D03*
D22*
X529590Y1118350D02*
D03*
X1245870Y1179830D02*
D03*
X1391920Y1184910D02*
D03*
X1570000Y1187450D02*
D03*
X707390Y509270D02*
D03*
X850900Y511810D02*
D03*
X1277620Y347980D02*
D03*
X1515110Y346710D02*
D03*
X1371600D02*
D03*
X1126490D02*
D03*
D23*
X529590Y1092950D02*
D03*
Y661150D02*
D03*
Y1067550D02*
D03*
Y1042150D02*
D03*
Y1016750D02*
D03*
Y991350D02*
D03*
Y965950D02*
D03*
Y940550D02*
D03*
Y915150D02*
D03*
Y889750D02*
D03*
Y864350D02*
D03*
Y838950D02*
D03*
Y813550D02*
D03*
Y788150D02*
D03*
Y762750D02*
D03*
Y737350D02*
D03*
Y711950D02*
D03*
Y686550D02*
D03*
X783590Y1118350D02*
D03*
Y1092950D02*
D03*
Y1067550D02*
D03*
Y1042150D02*
D03*
Y1016750D02*
D03*
Y991350D02*
D03*
Y965950D02*
D03*
Y940550D02*
D03*
Y915150D02*
D03*
Y889750D02*
D03*
Y864350D02*
D03*
Y838950D02*
D03*
Y813550D02*
D03*
Y788150D02*
D03*
Y762750D02*
D03*
Y737350D02*
D03*
Y711950D02*
D03*
Y686550D02*
D03*
Y661150D02*
D03*
X1131570Y1216100D02*
D03*
X1296670Y1179830D02*
D03*
X1442720Y1184910D02*
D03*
X1605000Y1187450D02*
D03*
X783590Y509270D02*
D03*
X732790D02*
D03*
X758190D02*
D03*
X927100Y511810D02*
D03*
X876300D02*
D03*
X901700D02*
D03*
X966470Y1060450D02*
D03*
Y1085850D02*
D03*
Y1035050D02*
D03*
X440690Y1118870D02*
D03*
Y1093470D02*
D03*
Y1068070D02*
D03*
Y1042670D02*
D03*
Y1017270D02*
D03*
Y991870D02*
D03*
Y966470D02*
D03*
Y941070D02*
D03*
Y915670D02*
D03*
Y890270D02*
D03*
Y864870D02*
D03*
Y839470D02*
D03*
Y814070D02*
D03*
Y788670D02*
D03*
Y763270D02*
D03*
Y737870D02*
D03*
Y712470D02*
D03*
Y687070D02*
D03*
X334010Y849630D02*
D03*
X308610Y824230D02*
D03*
X334010D02*
D03*
X308610Y798830D02*
D03*
X334010D02*
D03*
X308610Y773430D02*
D03*
X334010D02*
D03*
X308610Y748030D02*
D03*
X334010D02*
D03*
X325120Y1107440D02*
D03*
X299720Y1082040D02*
D03*
X325120D02*
D03*
X299720Y1056640D02*
D03*
X325120D02*
D03*
X299720Y1031240D02*
D03*
X325120D02*
D03*
X299720Y1005840D02*
D03*
X325120D02*
D03*
X1226820Y347980D02*
D03*
X1565910Y346710D02*
D03*
X1002030Y862330D02*
D03*
X925830D02*
D03*
X927100Y904240D02*
D03*
X1003300D02*
D03*
X1004570Y990600D02*
D03*
X928370D02*
D03*
X929640Y955040D02*
D03*
X1005840D02*
D03*
X491490Y518160D02*
D03*
Y441960D02*
D03*
X443230Y440690D02*
D03*
Y516890D02*
D03*
X336550Y518160D02*
D03*
Y441960D02*
D03*
X383540D02*
D03*
Y518160D02*
D03*
X961390Y784860D02*
D03*
Y759460D02*
D03*
Y810260D02*
D03*
X378460Y593090D02*
D03*
Y618490D02*
D03*
Y567690D02*
D03*
X292100Y593090D02*
D03*
Y618490D02*
D03*
Y567690D02*
D03*
X864870Y1093470D02*
D03*
Y1068070D02*
D03*
Y1042670D02*
D03*
Y1017270D02*
D03*
Y991870D02*
D03*
Y966470D02*
D03*
Y941070D02*
D03*
Y915670D02*
D03*
Y890270D02*
D03*
Y864870D02*
D03*
Y839470D02*
D03*
Y814070D02*
D03*
Y788670D02*
D03*
Y763270D02*
D03*
Y737870D02*
D03*
Y712470D02*
D03*
Y687070D02*
D03*
Y661670D02*
D03*
X1422400Y346710D02*
D03*
X1091490D02*
D03*
D24*
X1315720Y915670D02*
D03*
X1155700Y615950D02*
D03*
X1668780Y913130D02*
D03*
X1508760Y613410D02*
D03*
D25*
X1149985Y568325D02*
D03*
Y963295D02*
D03*
X1321435D02*
D03*
Y568325D02*
D03*
X1503045Y565785D02*
D03*
Y960755D02*
D03*
X1674495D02*
D03*
Y565785D02*
D03*
D26*
X1446090Y1046480D02*
D03*
X1736090D02*
D03*
Y476480D02*
D03*
X1446090D02*
D03*
X1383470D02*
D03*
X1093470D02*
D03*
X1383470Y1046480D02*
D03*
D27*
X1093470D02*
D03*
D28*
X1131570Y1181100D02*
D03*
X966470Y1111250D02*
D03*
X440690Y661670D02*
D03*
X308610Y849630D02*
D03*
X299720Y1107440D02*
D03*
X961390Y734060D02*
D03*
X378460Y643890D02*
D03*
X292100D02*
D03*
X864870Y1118870D02*
D03*
D29*
X876300Y430530D02*
D03*
X927100Y361950D02*
D03*
D30*
X901700Y430530D02*
D03*
X927100D02*
D03*
X850900Y361950D02*
D03*
X901700D02*
D03*
X876300D02*
D03*
X825500D02*
D03*
D31*
X913130Y1061720D02*
D03*
X910590Y1106170D02*
D03*
X293370Y525780D02*
D03*
X247650D02*
D03*
D32*
X755130Y940550D02*
X783590D01*
X690264Y875684D02*
X755130Y940550D01*
X690264Y555606D02*
Y875684D01*
X717550Y595630D02*
X783590Y529590D01*
X717550Y852447D02*
X775173Y910070D01*
X717550Y595630D02*
Y852447D01*
X745490Y613410D02*
Y828163D01*
X781677Y864350D02*
X783590D01*
X745490Y828163D02*
X781677Y864350D01*
X745490Y613410D02*
X787400Y571500D01*
X783590Y940550D02*
X783850Y940810D01*
X632460Y461010D02*
Y980844D01*
X596554Y1016750D02*
X632460Y980844D01*
X529590Y1016750D02*
X596554D01*
X529330Y1017010D02*
X529590Y1016750D01*
X1010920Y1111250D02*
X1035050Y1087120D01*
X966470Y1111250D02*
X1010920D01*
X885825Y814070D02*
X940435Y759460D01*
X927100Y361950D02*
X928370Y363220D01*
X927100Y430530D02*
X928370Y429260D01*
Y363220D02*
Y429260D01*
X900430Y363220D02*
X901700Y361950D01*
X900430Y429260D02*
X901700Y430530D01*
X900430Y363220D02*
Y429260D01*
X777240Y438150D02*
X850900Y511810D01*
X707390Y438150D02*
X777240D01*
X783590Y509270D02*
Y529590D01*
X711200Y534670D02*
X736127D01*
X690264Y555606D02*
X711200Y534670D01*
X758190Y509270D02*
Y512019D01*
X753110Y517099D02*
X758190Y512019D01*
X753110Y517099D02*
Y517687D01*
X736127Y534670D02*
X753110Y517687D01*
X901700Y511810D02*
Y546100D01*
X787400Y571500D02*
X876300D01*
X901700Y546100D01*
X908050Y563880D02*
X908050D01*
X762000Y654003D02*
X818785Y597218D01*
X874712D02*
X908050Y563880D01*
X818785Y597218D02*
X874712D01*
X908050Y563880D02*
X927100Y544830D01*
Y511810D02*
Y544830D01*
X783590Y864350D02*
X783850Y864610D01*
X864610D01*
X864870Y864870D01*
X864610Y839210D02*
X864870Y839470D01*
X783850Y839210D02*
X864610D01*
X783590Y838950D02*
X783850Y839210D01*
X762000Y820697D02*
X775173Y833870D01*
X775761D01*
X780841Y838950D01*
X783590D01*
X762000Y654003D02*
Y820697D01*
X783590Y661150D02*
X783850Y661410D01*
X864610D01*
X864870Y661670D01*
X783590Y686550D02*
X783850Y686810D01*
X864610D01*
X864870Y687070D01*
X783590Y711950D02*
X783850Y712210D01*
X864610D01*
X864870Y712470D01*
X783590Y737350D02*
X783850Y737610D01*
X864610D01*
X864870Y737870D01*
X783590Y762750D02*
X783850Y763010D01*
X864610D01*
X864870Y763270D01*
X783590Y788150D02*
X783850Y788410D01*
X864610D01*
X864870Y788670D01*
X783590Y813550D02*
X783850Y813810D01*
X864610D01*
X864870Y814070D01*
X864610Y915410D02*
X864870Y915670D01*
X783850Y915410D02*
X864610D01*
X783590Y915150D02*
X783850Y915410D01*
X783590Y889750D02*
X783850Y890010D01*
X864610D01*
X864870Y890270D01*
X783590Y965950D02*
X783850Y966210D01*
X864610D01*
X864870Y966470D01*
X783590Y991350D02*
X783850Y991610D01*
X864610D01*
X864870Y991870D01*
X783590Y1016750D02*
X783850Y1017010D01*
X864610D01*
X864870Y1017270D01*
X783590Y1042150D02*
X783850Y1042410D01*
X864610D01*
X864870Y1042670D01*
X783590Y1067550D02*
X783850Y1067810D01*
X864610D01*
X864870Y1068070D01*
X783590Y1092950D02*
X783850Y1093210D01*
X864610D01*
X864870Y1093470D01*
X783590Y1118350D02*
X783850Y1118610D01*
X864610D01*
X864870Y1118870D01*
X440690Y661670D02*
X440950Y661410D01*
X529330D01*
X529590Y661150D01*
X440690Y687070D02*
X440950Y686810D01*
X529330D01*
X529590Y686550D01*
X440690Y712470D02*
X440950Y712210D01*
X529330D01*
X529590Y711950D01*
X440690Y737870D02*
X440950Y737610D01*
X529330D01*
X529590Y737350D01*
X440690Y763270D02*
X440950Y763010D01*
X529330D01*
X529590Y762750D01*
X440690Y788670D02*
X440950Y788410D01*
X529330D01*
X529590Y788150D01*
X440690Y814070D02*
X440950Y813810D01*
X529330D01*
X529590Y813550D01*
X440690Y864870D02*
X440950Y864610D01*
X529330D01*
X529590Y864350D01*
X440690Y991870D02*
X440950Y991610D01*
X529330D01*
X529590Y991350D01*
X440690Y1017270D02*
X440950Y1017010D01*
X529330D01*
X440690Y1042670D02*
X440950Y1042410D01*
X529330D01*
X529590Y1042150D01*
X440690Y1068070D02*
X440950Y1067810D01*
X529330D01*
X529590Y1067550D01*
X440690Y1093470D02*
X440950Y1093210D01*
X529330D01*
X529590Y1092950D01*
X440690Y1118870D02*
X440950Y1118610D01*
X529330D01*
X529590Y1118350D01*
X440690Y915670D02*
X440950Y915410D01*
X529330D01*
X529590Y915150D01*
X440690Y941070D02*
X440950Y940810D01*
X529330D01*
X529590Y940550D01*
X440690Y966470D02*
X440950Y966210D01*
X529330D01*
X529590Y965950D01*
X440690Y890270D02*
X440950Y890010D01*
X529330D01*
X529590Y889750D01*
X864870Y814070D02*
X885825D01*
X940435Y759460D02*
X961390D01*
X1002030Y822163D02*
Y862330D01*
X966671Y786804D02*
X1002030Y822163D01*
X963334Y786804D02*
X966671D01*
X961390Y784860D02*
X963334Y786804D01*
X966470Y1060450D02*
X969219D01*
X974299Y1055370D01*
X974887D01*
X1004570Y1025687D01*
Y990600D02*
Y1025687D01*
X875239Y1085850D02*
X966470D01*
X867619Y1093470D02*
X875239Y1085850D01*
X864870Y1093470D02*
X867619D01*
X928370Y956310D02*
Y989330D01*
Y956310D02*
X929640Y955040D01*
X925830Y862330D02*
X926465Y862965D01*
Y903605D01*
X927100Y904240D01*
X899221Y932119D02*
X927100Y904240D01*
X872699Y986790D02*
X873287D01*
X899221Y960855D01*
Y932119D02*
Y960855D01*
X867619Y991870D02*
X872699Y986790D01*
X864870Y991870D02*
X867619D01*
X864870Y1068070D02*
X867619D01*
X872699Y1062990D01*
X873287D01*
X925357Y1010920D01*
Y992343D02*
Y1010920D01*
Y992343D02*
X928370Y989330D01*
X775761Y910070D02*
X780841Y915150D01*
X783590D01*
X775173Y910070D02*
X775761D01*
X783850Y940810D02*
X864610D01*
X864870Y941070D01*
X511810Y472440D02*
X568960Y529590D01*
X271780Y506730D02*
X306070Y472440D01*
X511810D01*
X568960Y529590D02*
Y833736D01*
X529590Y838950D02*
X563746D01*
X568960Y833736D01*
X271780Y601507D02*
X283683Y613410D01*
X284271D01*
X271780Y506730D02*
Y601507D01*
X284271Y613410D02*
X289351Y618490D01*
X292100D01*
X416560Y593090D02*
X491490Y518160D01*
Y441960D02*
X533400D01*
X607060Y515620D02*
Y966470D01*
X533400Y441960D02*
X607060Y515620D01*
X490855Y441325D02*
X491490Y441960D01*
X440690Y839470D02*
X440950Y839210D01*
X529330D01*
X529590Y838950D01*
X443865Y441325D02*
X490855D01*
X443230Y440690D02*
X443865Y441325D01*
X579120Y407670D02*
X632460Y461010D01*
X406400Y441960D02*
X440690Y407670D01*
X579120D01*
X582180Y991350D02*
X607060Y966470D01*
X529590Y991350D02*
X582180D01*
X383540Y441960D02*
X406400D01*
X336550D02*
X383540D01*
X381000Y766283D02*
Y793990D01*
X402590Y815580D01*
X341839Y778510D02*
X343968D01*
X387350Y821892D02*
Y865667D01*
X343968Y778510D02*
X387350Y821892D01*
X402590Y815580D02*
Y855507D01*
X334010Y773430D02*
X336759D01*
X341839Y778510D01*
X378460Y593090D02*
X416560D01*
X300990Y591820D02*
X303739D01*
X308819Y586740D01*
X309407D01*
X336550Y559597D01*
Y518160D02*
Y559597D01*
X412179Y643664D02*
Y738096D01*
X378460Y618490D02*
X380404Y620434D01*
X412179Y738096D02*
X432273Y758190D01*
X380404Y620434D02*
X388949D01*
X432273Y758190D02*
X432861D01*
X388949Y620434D02*
X412179Y643664D01*
X437941Y763270D02*
X440690D01*
X432861Y758190D02*
X437941Y763270D01*
X342427Y727710D02*
X381000Y766283D01*
X402590Y855507D02*
X432273Y885190D01*
X387350Y865667D02*
X435409Y913726D01*
X300193Y727710D02*
X342427D01*
X432861Y885190D02*
X437941Y890270D01*
X440690D01*
X432273Y885190D02*
X432861D01*
X288290Y739613D02*
X300193Y727710D01*
X288290Y756447D02*
X300193Y768350D01*
X288290Y739613D02*
Y756447D01*
X305861Y773430D02*
X308610D01*
X300781Y768350D02*
X305861Y773430D01*
X300193Y768350D02*
X300781D01*
X435409Y913726D02*
X438746D01*
X440690Y915670D01*
X325120Y1031240D02*
X350520D01*
X415290Y966470D01*
X440690D01*
X335753Y941070D02*
X440690D01*
X291303Y1026160D02*
X291891D01*
X279400Y997423D02*
X335753Y941070D01*
X291891Y1026160D02*
X296971Y1031240D01*
X299720D01*
X279400Y1014257D02*
X291303Y1026160D01*
X279400Y997423D02*
Y1014257D01*
D33*
X783590Y361950D02*
X825500D01*
X707390Y438150D02*
X783590Y361950D01*
X825500Y361477D02*
X868207Y318770D01*
X825500Y361477D02*
Y361950D01*
X938230Y318770D02*
X1011405Y391945D01*
X868207Y318770D02*
X938230D01*
X1011405Y391945D02*
Y661480D01*
X1035050Y1226820D02*
X1044015Y1235785D01*
X1035050Y1087120D02*
Y1226820D01*
X1126490Y346710D02*
X1144905Y328295D01*
X1257935D01*
X1299851Y347980D02*
X1320806Y327025D01*
X1277620Y347980D02*
X1299851D01*
X1320806Y327025D02*
X1402715D01*
X1503045Y565785D02*
X1546860Y521970D01*
Y378460D02*
Y521970D01*
X1515110Y346710D02*
X1546860Y378460D01*
X1422400Y346710D02*
X1515110D01*
X1391920Y1184910D02*
X1441450Y1234440D01*
X1523010D02*
X1570000Y1187450D01*
X1441450Y1234440D02*
X1523010D01*
X1503045Y960755D02*
Y1120495D01*
X1570000Y1187450D01*
X1402715Y327025D02*
X1422400Y346710D01*
X1257935Y328295D02*
X1277620Y347980D01*
X1126490Y346710D02*
Y544830D01*
X1149985Y568325D01*
Y800060D02*
Y963295D01*
X1011405Y661480D02*
X1149985Y800060D01*
X1132205Y1180465D02*
X1149985Y1162685D01*
X1131570Y1181100D02*
X1132205Y1180465D01*
X1149985Y963295D02*
Y1162685D01*
X1245235Y1180465D02*
X1245870Y1179830D01*
X325120Y1107440D02*
X453390Y1235710D01*
X1043940D01*
X1341045Y1235785D02*
X1391920Y1184910D01*
X1044015Y1235785D02*
X1341045D01*
X961390Y734060D02*
X964565Y737235D01*
X970596D01*
X1035050Y801689D01*
Y1087120D01*
X301625Y643255D02*
X377825D01*
X300990Y642620D02*
X301625Y643255D01*
X377825D02*
X378460Y643890D01*
X356235Y815024D02*
Y842299D01*
X349539Y848995D02*
X356235Y842299D01*
X334645Y848995D02*
X349539D01*
X332795Y850845D02*
X334645Y848995D01*
X308610Y798830D02*
X334010D01*
X267045D02*
X308610D01*
X341256Y800045D02*
X356235Y815024D01*
X335225Y800045D02*
X341256D01*
X334010Y798830D02*
X335225Y800045D01*
X260350Y792134D02*
X267045Y798830D01*
X260350Y683260D02*
Y792134D01*
X267045Y1055425D02*
X298505D01*
X260350Y871565D02*
Y1048729D01*
X267045Y1055425D01*
X260350Y683260D02*
X300990Y642620D01*
X260350Y871565D02*
X293907D01*
X294196Y871855D01*
X332795Y850845D02*
Y862084D01*
X323023Y871855D02*
X332795Y862084D01*
X294196Y871855D02*
X323023D01*
X298505Y1055425D02*
X299720Y1056640D01*
X325120D01*
Y1107440D02*
X326335Y1106225D01*
X332366D01*
X347345Y1091246D01*
Y1072834D02*
Y1091246D01*
X332366Y1057855D02*
X347345Y1072834D01*
X1132205Y1180465D02*
X1245235D01*
X707390Y438150D02*
Y509270D01*
D34*
X152400Y1262380D02*
X157480Y1247140D01*
X147320D02*
X152400Y1262380D01*
X147320Y273050D02*
X152400Y257810D01*
X157480Y273050D01*
X152400Y800722D02*
Y1262380D01*
Y257810D02*
Y711340D01*
X149860Y1262380D02*
X196443D01*
X149860Y257810D02*
X196443D01*
X1756410Y1292860D02*
X1771650Y1297940D01*
X1756410Y1303020D02*
X1771650Y1297940D01*
X198983D02*
X214223Y1303020D01*
X198983Y1297940D02*
X214223Y1292860D01*
X1025943Y1297940D02*
X1771650D01*
X198983D02*
X936562D01*
X1771650Y1264920D02*
Y1300480D01*
X198983Y1264920D02*
Y1300480D01*
D35*
X161542Y715404D02*
Y720482D01*
Y717943D01*
X146306D01*
X148846Y715404D01*
Y728100D02*
X146306Y730639D01*
Y735718D01*
X148846Y738257D01*
X159002D01*
X161542Y735718D01*
Y730639D01*
X159002Y728100D01*
X148846D01*
Y743335D02*
X146306Y745874D01*
Y750953D01*
X148846Y753492D01*
X159002D01*
X161542Y750953D01*
Y745874D01*
X159002Y743335D01*
X148846D01*
X161542Y758570D02*
X159002D01*
Y761109D01*
X161542D01*
Y758570D01*
Y778884D02*
X146306D01*
X153924Y771266D01*
Y781423D01*
X146306Y796658D02*
X148846Y791580D01*
X153924Y786501D01*
X159002D01*
X161542Y789040D01*
Y794119D01*
X159002Y796658D01*
X156463D01*
X153924Y794119D01*
Y786501D01*
X940626Y1288799D02*
X945704D01*
X943165D01*
Y1304034D01*
X940626Y1301494D01*
X963478Y1304034D02*
X953321D01*
Y1296416D01*
X958400Y1298955D01*
X960939D01*
X963478Y1296416D01*
Y1291338D01*
X960939Y1288799D01*
X955861D01*
X953321Y1291338D01*
X968557Y1304034D02*
X978713D01*
Y1301494D01*
X968557Y1291338D01*
Y1288799D01*
X983792D02*
Y1291338D01*
X986331D01*
Y1288799D01*
X983792D01*
X1006644D02*
X996488D01*
X1006644Y1298955D01*
Y1301494D01*
X1004105Y1304034D01*
X999027D01*
X996488Y1301494D01*
X1011722Y1304034D02*
X1021879D01*
Y1301494D01*
X1011722Y1291338D01*
Y1288799D01*
M02*
